<svg width="74" height="84" viewBox="0 0 74 84" fill="none" xmlns="http://www.w3.org/2000/svg">
<path fill-rule="evenodd" clip-rule="evenodd" d="M43.3204 12.2618C43.2931 12.2618 43.2697 12.2618 43.2423 12.2579V15.0899C43.2423 15.5509 43.0548 15.9649 42.754 16.2657C42.4532 16.5665 42.0353 16.754 41.5782 16.754L15.3052 16.7579C14.8443 16.7579 14.4302 16.5704 14.1294 16.2696C14.106 16.2462 14.0865 16.2228 14.0669 16.1993C13.8013 15.9063 13.6411 15.5157 13.6411 15.0938V12.2618C13.6138 12.2657 13.5904 12.2657 13.563 12.2657L1.77002 12.2618V81.5668H48C46.1133 80.6528 44.4141 79.4184 42.9727 77.934C39.8086 74.6723 37.8907 70.1996 37.9688 65.301V65.2971C38.0469 60.3948 40.1016 55.9846 43.3633 52.8241C46.4258 49.8553 50.5547 47.9843 55.1053 47.828L55.1092 12.262L43.3204 12.2618ZM18.1294 66.8088H28.7384C28.5197 69.4416 27.34 71.7971 25.5548 73.5276C23.6095 75.4143 20.9454 76.5549 18.0236 76.512C15.1017 76.4651 12.4728 75.2386 10.5861 73.2932C8.71503 71.3635 7.57833 68.7268 7.60173 65.8323C7.60564 65.805 7.60564 65.7776 7.60564 65.7464H7.60173C7.6447 63.2073 8.57829 60.8909 10.1017 59.0902L17.5548 66.5433C17.5666 66.555 17.5783 66.5667 17.5939 66.5784L17.6017 66.5863L17.6173 66.598L17.6564 66.637L17.6642 66.6409L17.6798 66.6566L17.6916 66.6644H17.7072L17.715 66.6722L17.7775 66.7034L17.7892 66.7074L17.8048 66.7191L17.8126 66.723L17.8244 66.7269C17.9064 66.7659 17.9962 66.7933 18.09 66.8011H18.1017C18.1095 66.805 18.1177 66.8088 18.1294 66.8088ZM17.3091 63.7893L11.3599 57.8401C12.9966 56.4573 15.0552 55.5628 17.3091 55.3753V63.7893ZM18.1255 53.5783C18.149 53.5783 18.1685 53.5744 18.1919 53.5744C18.2154 53.5744 18.2388 53.5744 18.2623 53.5783H18.3013C18.3248 53.5783 18.3482 53.5744 18.3716 53.5744V53.5783H18.3873C21.7975 53.633 24.8639 55.0627 27.0631 57.3283C29.2076 59.5431 30.5279 62.551 30.5436 65.8595C30.5436 65.883 30.5475 65.9025 30.5475 65.9259C30.5475 65.9494 30.5475 65.9728 30.5436 65.9962V66.0392C30.5436 66.0627 30.5475 66.0861 30.5475 66.1095H30.5436V66.1252C30.4889 69.5354 29.0592 72.6017 26.7936 74.8009C24.5241 77.0001 21.4147 78.3361 18.0045 78.2814C14.5943 78.2268 11.5279 76.797 9.32865 74.5314C7.14505 72.2814 5.81695 69.2034 5.84815 65.8245C5.84815 65.801 5.84424 65.7776 5.84424 65.7541H5.84815V65.7385C5.89893 62.4143 7.26225 59.4182 9.43015 57.2307C9.44187 57.219 9.44968 57.2073 9.4614 57.1995C9.47312 57.1877 9.48093 57.1799 9.49265 57.1721L9.59812 57.0667C11.809 54.9144 14.817 53.5939 18.1255 53.5783ZM19.0787 55.3752C21.7115 55.594 24.067 56.7736 25.7975 58.5588C27.4537 60.2697 28.5358 62.5315 28.7467 65.0393H19.0787V55.3752ZM59.8517 58.926C60.5274 58.1682 61.4494 57.7541 62.3908 57.6994C63.3322 57.6447 64.293 57.9494 65.0509 58.6252C65.8088 59.301 66.2228 60.2229 66.2775 61.1643C66.3322 62.1057 66.0275 63.0666 65.3518 63.8245L65.3166 63.8636L56.4689 74.0626L56.4611 74.0743C55.7853 74.8321 54.8634 75.2462 53.922 75.3009C52.9806 75.3556 52.0197 75.0509 51.2618 74.3751V74.3712C51.211 74.3243 51.172 74.2931 51.1563 74.2735C51.1251 74.2423 51.0938 74.215 51.0665 74.1837L45.3126 69.0314C44.5548 68.3556 44.1446 67.4337 44.0938 66.4962C44.043 65.5587 44.3477 64.6017 45.0274 63.8439C45.7032 63.0861 46.6251 62.6759 47.5626 62.6251C48.5001 62.5743 49.4571 62.879 50.2149 63.5548L53.4063 66.4103L59.8516 58.9337L59.8517 58.926ZM62.4884 59.4612C62.9805 59.4338 63.4805 59.5901 63.875 59.9417C64.2696 60.2932 64.4883 60.7737 64.5157 61.2581C64.543 61.7502 64.3868 62.2502 64.0313 62.6448L55.1407 72.8908C54.7891 73.2853 54.3087 73.504 53.8243 73.5314C53.3321 73.5587 52.8321 73.4025 52.4376 73.047V73.0509L52.379 73.0001L52.3243 72.9454L52.2774 72.9025L46.4844 67.715C46.0938 67.3634 45.879 66.8869 45.8516 66.3986C45.8243 65.9103 45.9844 65.4103 46.3321 65.0158C46.6837 64.6252 47.1602 64.4103 47.6485 64.383C48.1368 64.3556 48.6368 64.5158 49.0313 64.8673L53.5586 68.922L61.1641 60.0978C61.5235 59.7033 62.0001 59.4885 62.4884 59.4612ZM55.4923 81.5662H55.4727C51.0586 81.4959 47.0899 79.6443 44.2387 76.7029C41.391 73.7654 39.6645 69.7381 39.7309 65.3239C39.8012 60.9059 41.6528 56.9372 44.5942 54.0859C47.5161 51.2539 51.5161 49.5273 55.9032 49.5781H55.9384C55.9579 49.5781 55.9774 49.5781 55.997 49.5742C60.3837 49.6601 64.329 51.5117 67.165 54.4375C69.997 57.3594 71.7197 61.3594 71.6728 65.7465C71.6689 65.7738 71.6689 65.8051 71.6689 65.8324H71.6728C71.6025 70.2426 69.747 74.2074 66.8095 77.0554C64.0283 79.8054 60.1845 81.5085 55.9575 81.5671L55.4923 81.5662ZM56.0235 83.3279H55.9962H55.9883C55.8165 83.3318 55.6446 83.3318 55.4727 83.3279L0.886716 83.3318C0.398436 83.3318 0.00390625 82.9373 0.00390625 82.4529H0L0.00390625 11.3789C0.00390625 10.8906 0.398436 10.4961 0.886716 10.4961H13.5627C13.5901 10.4961 13.6135 10.4961 13.6408 10.5V8.22268C13.6408 7.76174 13.8283 7.34768 14.1291 7.04688C14.4299 6.7461 14.8479 6.5586 15.3049 6.5586H20.1057C20.5315 4.7891 21.508 3.2305 22.844 2.082C24.3479 0.7851 26.3049 0 28.4417 0C30.5784 0 32.5355 0.78516 34.0394 2.082C35.3753 3.2343 36.3519 4.789 36.7777 6.5586H41.5746C42.0317 6.5586 42.4457 6.7461 42.7465 7.04688L42.7504 7.05079C43.0512 7.35157 43.2387 7.76563 43.2387 8.22269V10.5C43.2661 10.4961 43.2895 10.4961 43.3168 10.4961H55.9928C56.4811 10.4961 56.8756 10.8906 56.8756 11.3789V47.8479C61.4303 48.1409 65.5045 50.1409 68.4806 53.2073C71.6251 56.4534 73.5392 60.8909 73.4845 65.7623C73.4845 65.7857 73.4884 65.8092 73.4884 65.8326H73.4845V65.8443C73.4064 70.7505 71.3517 75.1607 68.09 78.3213C64.9533 81.3643 60.6994 83.2549 56.024 83.3291L56.0235 83.3279ZM13.3715 44.0779V47.8709H9.0199V44.0779H13.3715ZM8.1371 42.3084H14.2582C14.7465 42.3084 15.141 42.7029 15.141 43.1912V48.7498C15.141 49.2381 14.7465 49.6326 14.2582 49.6326H8.1371C7.64882 49.6326 7.25429 49.2381 7.25429 48.7498V43.1912C7.25429 42.7029 7.64882 42.3084 8.1371 42.3084ZM18.4651 49.0272C17.9768 49.0272 17.5823 48.6327 17.5823 48.1444C17.5823 47.6561 17.9768 47.2616 18.4651 47.2616H40.3051C40.7934 47.2616 41.1879 47.6561 41.1879 48.1444C41.1879 48.6327 40.7934 49.0272 40.3051 49.0272H18.4651ZM18.4651 44.6834C17.9768 44.6834 17.5823 44.2889 17.5823 43.8006C17.5823 43.3123 17.9768 42.9178 18.4651 42.9178H48.6991C49.1874 42.9178 49.5819 43.3123 49.5819 43.8006C49.5819 44.2889 49.1874 44.6834 48.6991 44.6834H18.4651ZM13.3713 33.3244V37.1174H9.0197V33.3244H13.3713ZM8.1369 31.5588H14.258C14.7463 31.5588 15.1408 31.9533 15.1408 32.4416V38.0002C15.1408 38.4885 14.7463 38.883 14.258 38.883H8.1369C7.64862 38.883 7.25409 38.4885 7.25409 38.0002V32.4416C7.25409 31.9533 7.64862 31.5588 8.1369 31.5588ZM18.4649 38.2776C17.9766 38.2776 17.5821 37.8831 17.5821 37.3948C17.5821 36.9065 17.9766 36.512 18.4649 36.512H40.3049C40.7932 36.512 41.1877 36.9065 41.1877 37.3948C41.1877 37.8831 40.7932 38.2776 40.3049 38.2776H18.4649ZM18.4649 33.9338C17.9766 33.9338 17.5821 33.5393 17.5821 33.051C17.5821 32.5627 17.9766 32.1682 18.4649 32.1682L48.6989 32.1643C49.1872 32.1643 49.5817 32.5588 49.5817 33.0471C49.5817 33.5353 49.1872 33.9299 48.6989 33.9299L18.4649 33.9338ZM13.3711 22.5748V26.3678H9.0195V22.5748H13.3711ZM8.1367 20.8053H14.2578C14.7461 20.8053 15.1406 21.1998 15.1406 21.6881V27.2506C15.1406 27.7389 14.7461 28.1334 14.2578 28.1334H8.1367C7.64842 28.1334 7.25389 27.7389 7.25389 27.2506V21.6881C7.25389 21.2037 7.64842 20.8053 8.1367 20.8053ZM18.4647 27.528C17.9764 27.528 17.5819 27.1335 17.5819 26.6452C17.5819 26.1569 17.9764 25.7624 18.4647 25.7624H40.3047C40.793 25.7624 41.1875 26.1569 41.1875 26.6452C41.1875 27.1335 40.793 27.528 40.3047 27.528H18.4647ZM18.4647 23.1842C17.9764 23.1842 17.5819 22.7897 17.5819 22.3014C17.5819 21.8131 17.9764 21.4186 18.4647 21.4186L48.6987 21.4147C49.187 21.4147 49.5815 21.8092 49.5815 22.2975C49.5815 22.7858 49.187 23.1803 48.6987 23.1803L18.4647 23.1842ZM28.4413 4.59419C27.4452 4.59419 26.539 5.00044 25.8866 5.65279C25.2343 6.30513 24.828 7.21139 24.828 8.20749C24.828 9.20358 25.2343 10.1098 25.8866 10.7622C26.539 11.4146 27.4452 11.8208 28.4413 11.8208C29.4374 11.8208 30.3436 11.4145 30.996 10.7622C31.6484 10.1098 32.0546 9.20359 32.0546 8.20749C32.0546 7.2114 31.6484 6.30519 30.996 5.65279C30.3398 5.00045 29.4374 4.59419 28.4413 4.59419ZM29.746 6.90279C29.414 6.57076 28.953 6.36373 28.4413 6.36373C27.9335 6.36373 27.4726 6.57076 27.1366 6.90279C26.8046 7.23482 26.5975 7.69967 26.5975 8.20749C26.5975 8.7153 26.8046 9.18015 27.1366 9.51219C27.4686 9.84422 27.9335 10.0512 28.4413 10.0512C28.9491 10.0512 29.414 9.84422 29.746 9.51219C30.078 9.18016 30.2851 8.71922 30.2851 8.20749C30.2851 7.69968 30.078 7.23874 29.746 6.90279ZM41.473 8.32469V14.9849L15.407 14.9888V8.32859H20.8289C21.2859 8.32859 21.6648 7.98093 21.7078 7.53172C21.9578 5.89502 22.7937 4.44972 23.993 3.41452C25.1844 2.38722 26.7352 1.77002 28.4344 1.77002C30.1336 1.77002 31.6883 2.39111 32.8758 3.41452C34.0867 4.45752 34.9227 5.91842 35.1688 7.57072C35.2313 8.01213 35.6102 8.32463 36.0438 8.32463L41.473 8.32469Z" fill="black"/>
</svg>
