<svg width="40" height="29" viewBox="0 0 40 29" fill="none" xmlns="http://www.w3.org/2000/svg">
<path d="M6.17773 16.639H3.46887C3.3216 16.6392 3.18041 16.6977 3.07632 16.8017C2.97223 16.9057 2.91376 17.0467 2.91376 17.1937V25.2699C2.91376 25.4169 2.97223 25.5579 3.07632 25.6619C3.18041 25.7659 3.3216 25.8244 3.46887 25.8245H6.17773C6.25069 25.8245 6.32293 25.8102 6.39034 25.7823C6.45774 25.7544 6.51898 25.7136 6.57057 25.6621C6.62216 25.6106 6.66308 25.5494 6.691 25.4821C6.71892 25.4148 6.73329 25.3427 6.73329 25.2699V17.1937C6.73329 17.0466 6.67476 16.9055 6.57057 16.8015C6.46638 16.6975 6.32508 16.639 6.17773 16.639ZM5.62218 24.7152H4.02442V17.7484H5.62174L5.62218 24.7152ZM11.3888 20.0221H8.68083C8.53349 20.0221 8.39218 20.0806 8.28799 20.1846C8.18381 20.2886 8.12528 20.4297 8.12528 20.5768V25.2703C8.12528 25.4174 8.18381 25.5585 8.28799 25.6625C8.39218 25.7665 8.53349 25.825 8.68083 25.825H11.3888C11.5362 25.825 11.6775 25.7665 11.7816 25.6625C11.8858 25.5585 11.9444 25.4174 11.9444 25.2703V20.5782C11.9445 20.5052 11.9303 20.4329 11.9025 20.3655C11.8746 20.298 11.8337 20.2367 11.7821 20.1851C11.7305 20.1334 11.6692 20.0925 11.6017 20.0645C11.5342 20.0365 11.4619 20.0221 11.3888 20.0221ZM10.8333 24.7156H9.23638V21.1315H10.8333V24.7156ZM16.6003 13.8461H13.8923C13.745 13.8461 13.6037 13.9046 13.4995 14.0086C13.3953 14.1126 13.3368 14.2537 13.3368 14.4008V25.2703C13.3368 25.4174 13.3953 25.5585 13.4995 25.6625C13.6037 25.7665 13.745 25.825 13.8923 25.825H16.6003C16.7477 25.825 16.889 25.7665 16.9932 25.6625C17.0973 25.5585 17.1559 25.4174 17.1559 25.2703V14.4008C17.1559 14.2537 17.0973 14.1126 16.9932 14.0086C16.889 13.9046 16.7477 13.8461 16.6003 13.8461ZM16.0443 24.7156H14.4479V14.9555H16.0443V24.7156ZM21.8118 15.5696H19.1039C18.9565 15.5696 18.8152 15.6281 18.711 15.7321C18.6068 15.8361 18.5483 15.9772 18.5483 16.1243V25.2703C18.5483 25.4174 18.6068 25.5585 18.711 25.6625C18.8152 25.7665 18.9565 25.825 19.1039 25.825H21.8118C21.9592 25.825 22.1005 25.7665 22.2047 25.6625C22.3089 25.5585 22.3674 25.4174 22.3674 25.2703V16.1243C22.3675 16.0514 22.3531 15.9793 22.3252 15.912C22.2973 15.8446 22.2564 15.7835 22.2048 15.732C22.1532 15.6804 22.0919 15.6396 22.0245 15.6117C21.9571 15.5839 21.8848 15.5696 21.8118 15.5696ZM21.2567 24.7156H19.6594V16.679H21.2567V24.7156ZM2.91376 3.84371C2.91376 3.69667 2.97223 3.55566 3.07632 3.45165C3.18041 3.34764 3.3216 3.28915 3.46887 3.28903H5.5133C5.66064 3.28903 5.80194 3.34747 5.90613 3.45149C6.01032 3.55551 6.06885 3.6966 6.06885 3.84371C6.06885 3.99082 6.01032 4.1319 5.90613 4.23592C5.80194 4.33995 5.66064 4.39839 5.5133 4.39839H3.46887C3.39593 4.39839 3.32371 4.38404 3.25633 4.35615C3.18895 4.32827 3.12774 4.28741 3.07619 4.2359C3.02464 4.18438 2.98376 4.12323 2.95589 4.05594C2.92801 3.98865 2.9137 3.91653 2.91376 3.84371ZM13.3239 3.84371C13.324 3.91657 13.3096 3.98872 13.2817 4.05604C13.2538 4.12337 13.2129 4.18454 13.1613 4.23605C13.1097 4.28757 13.0485 4.32843 12.981 4.35628C12.9136 4.38414 12.8413 4.39844 12.7684 4.39839H7.96528C7.81794 4.39839 7.67663 4.33995 7.57244 4.23592C7.46826 4.1319 7.40973 3.99082 7.40973 3.84371C7.40973 3.6966 7.46826 3.55551 7.57244 3.45149C7.67663 3.34747 7.81794 3.28903 7.96528 3.28903H12.7684C12.9157 3.28903 13.057 3.34747 13.1612 3.45149C13.2654 3.55551 13.3239 3.6966 13.3239 3.84371ZM25.7438 7.45977C25.6485 7.68792 25.5995 7.93274 25.5998 8.17996C25.5999 8.44655 25.6567 8.71008 25.7665 8.95307C25.8764 9.19607 26.0367 9.41298 26.2368 9.58943C26.4369 9.76589 26.6724 9.89785 26.9275 9.97657C27.1826 10.0553 27.4515 10.079 27.7165 10.0461C27.9814 10.0131 28.2364 9.92436 28.4644 9.78561C28.6923 9.64687 28.8882 9.46132 29.0389 9.24127C29.1896 9.02122 29.2918 8.7717 29.3386 8.50924C29.3854 8.24678 29.3758 7.97739 29.3105 7.71892L31.8571 6.17025C32.1937 6.46694 32.6257 6.63328 33.0747 6.63908C33.5236 6.64488 33.9598 6.48975 34.304 6.20185C34.6482 5.91396 34.8775 5.51239 34.9505 5.07005C35.0234 4.62771 34.935 4.17392 34.7014 3.79107C34.4679 3.40822 34.1045 3.12169 33.6774 2.9835C33.2502 2.84531 32.7876 2.86462 32.3735 3.03793C31.9594 3.21124 31.6213 3.52705 31.4206 3.92803C31.2198 4.32902 31.1697 4.78858 31.2793 5.2233L28.7331 6.77197C28.4245 6.49829 28.0341 6.33377 27.6223 6.30385C27.2106 6.27393 26.8005 6.38028 26.4554 6.60645L25.0358 5.43142C25.153 5.1496 25.1997 4.84357 25.1719 4.53971C25.1442 4.23585 25.0428 3.94329 24.8766 3.68726C24.7104 3.43124 24.4842 3.21942 24.2178 3.0701C23.9513 2.92077 23.6524 2.83841 23.3469 2.83013C23.0414 2.82184 22.7385 2.88787 22.4643 3.02253C22.19 3.15719 21.9527 3.35643 21.7728 3.60307C21.5929 3.8497 21.4758 4.13634 21.4316 4.43824C21.3873 4.74015 21.4173 5.04826 21.519 5.33602L18.4968 7.57115C18.1333 7.30497 17.6863 7.17777 17.2369 7.21268C16.7875 7.24758 16.3656 7.44226 16.0478 7.76135C15.7299 8.08045 15.5372 8.50279 15.5048 8.95165C15.4723 9.40051 15.6021 9.84612 15.8707 10.2075C16.1393 10.5689 16.5288 10.8221 16.9685 10.9212C17.4082 11.0202 17.8689 10.9585 18.2669 10.7473C18.6649 10.536 18.9738 10.1893 19.1375 9.76996C19.3012 9.35065 19.3088 8.88663 19.159 8.46219L22.1812 6.22661C22.49 6.45382 22.861 6.58118 23.2445 6.59157C23.6279 6.60197 24.0054 6.49489 24.3261 6.28474L25.7438 7.45977ZM33.1042 3.99014C33.2572 3.99005 33.4067 4.03526 33.534 4.12005C33.6612 4.20484 33.7604 4.3254 33.819 4.46647C33.8776 4.60755 33.893 4.76281 33.8632 4.91261C33.8334 5.06242 33.7598 5.20004 33.6516 5.30806C33.5435 5.41609 33.4057 5.48967 33.2557 5.5195C33.1057 5.54933 32.9502 5.53406 32.8088 5.47564C32.6675 5.41721 32.5467 5.31825 32.4617 5.19126C32.3767 5.06428 32.3313 4.91498 32.3313 4.76226C32.3316 4.55763 32.4131 4.36144 32.5579 4.2167C32.7028 4.07197 32.8993 3.99049 33.1042 3.99014ZM27.4838 7.40697C27.6367 7.40688 27.7863 7.45206 27.9135 7.53681C28.0407 7.62156 28.1399 7.74206 28.1985 7.88309C28.2571 8.02412 28.2726 8.17933 28.2428 8.32911C28.2131 8.47889 28.1396 8.61651 28.0316 8.72457C27.9235 8.83263 27.7858 8.90629 27.6358 8.93621C27.4859 8.96614 27.3304 8.951 27.189 8.89271C27.0477 8.83442 26.9268 8.7356 26.8417 8.60873C26.7566 8.48187 26.7111 8.33265 26.7109 8.17996C26.7112 7.97538 26.7927 7.77924 26.9376 7.63457C27.0825 7.48991 27.2789 7.40853 27.4838 7.4083V7.40697ZM17.3825 9.8582C17.2297 9.8582 17.0804 9.81298 16.9533 9.72824C16.8262 9.64351 16.7272 9.52307 16.6686 9.38214C16.6101 9.24122 16.5947 9.08613 16.6244 8.93648C16.6541 8.78682 16.7276 8.64932 16.8356 8.54135C16.9435 8.43338 17.0811 8.35978 17.2309 8.32985C17.3808 8.29993 17.5361 8.31502 17.6774 8.37322C17.8186 8.43142 17.9394 8.53012 18.0245 8.65685C18.1096 8.78357 18.1552 8.93264 18.1554 9.0852C18.1555 9.29002 18.0742 9.4865 17.9293 9.63146C17.7843 9.77641 17.5877 9.85797 17.3825 9.8582ZM22.5212 4.71078C22.5212 4.55816 22.5665 4.40896 22.6514 4.28206C22.7364 4.15516 22.8571 4.05626 22.9983 3.99785C23.1395 3.93945 23.2949 3.92416 23.4448 3.95394C23.5948 3.98371 23.7325 4.05721 23.8406 4.16513C23.9487 4.27305 24.0223 4.41055 24.0521 4.56024C24.0819 4.70992 24.0666 4.86508 24.0081 5.00609C23.9496 5.14709 23.8506 5.26761 23.7235 5.3524C23.5964 5.43719 23.4469 5.48245 23.2941 5.48245C23.0892 5.48222 22.8928 5.4009 22.748 5.25633C22.6031 5.11176 22.5215 4.91574 22.5212 4.71123V4.71078ZM37.4922 14.967V0.554682C37.4922 0.407572 37.4337 0.266487 37.3295 0.162464C37.2253 0.0584416 37.084 2.84307e-06 36.9366 2.84307e-06H0.556885C0.483801 -0.000230872 0.411389 0.0139471 0.343806 0.0417231C0.276223 0.0694992 0.214799 0.110327 0.163058 0.161862C0.111317 0.213398 0.0702785 0.274628 0.0422968 0.342038C0.0143152 0.409448 -5.87094e-05 0.481712 1.80222e-07 0.554682V28.0952C1.80222e-07 28.2423 0.0585314 28.3834 0.162718 28.4874C0.266904 28.5914 0.40821 28.6498 0.555552 28.6498H29.1731C29.2366 28.6497 29.2996 28.6386 29.3594 28.617C31.1165 29.1746 33.011 29.1221 34.7345 28.468C36.458 27.814 37.9092 26.5969 38.8518 25.0148C39.7945 23.4327 40.1733 21.5787 39.9265 19.7544C39.6797 17.93 38.8215 16.2427 37.4922 14.967ZM38.8886 20.8404C38.8898 21.8899 38.6548 22.9263 38.2011 23.8729L35.1553 22.1188C35.3466 21.6233 35.4245 21.0913 35.3831 20.5618C35.3418 20.0324 35.1823 19.5189 34.9164 19.0589C34.6505 18.599 34.2848 18.2043 33.8463 17.9037C33.4078 17.6032 32.9075 17.4044 32.382 17.322V13.8142C34.1524 13.9547 35.805 14.7557 37.0107 16.0576C38.2164 17.3596 38.8868 19.0672 38.8886 20.8404ZM24.7705 20.8404C24.7722 19.0679 25.442 17.3609 26.6468 16.0591C27.8516 14.7572 29.503 13.9558 31.2727 13.8142V17.322C30.7472 17.4044 30.2469 17.6032 29.8084 17.9037C29.3698 18.2043 29.0042 18.599 28.7383 19.0589C28.4724 19.5189 28.3129 20.0324 28.2716 20.5618C28.2302 21.0913 28.3081 21.6233 28.4994 22.1188L25.4567 23.8729C25.003 22.9263 24.768 21.8899 24.7692 20.8404H24.7705ZM29.3731 20.8404C29.3731 20.3553 29.5172 19.8812 29.7871 19.4778C30.057 19.0745 30.4407 18.7602 30.8895 18.5745C31.3384 18.3889 31.8323 18.3403 32.3088 18.435C32.7853 18.5296 33.223 18.7632 33.5665 19.1062C33.9101 19.4492 34.144 19.8862 34.2388 20.3619C34.3336 20.8377 34.2849 21.3308 34.099 21.779C33.9131 22.2271 33.5982 22.6102 33.1943 22.8796C32.7903 23.1491 32.3154 23.293 31.8296 23.293C31.1781 23.2926 30.5533 23.0342 30.0925 22.5743C29.6317 22.1145 29.3725 21.4909 29.3718 20.8404H29.3731ZM1.1111 27.5405V1.10936H36.3811V14.0702C34.5918 12.863 32.3964 12.4125 30.2753 12.8173C28.1542 13.222 26.2799 14.4491 25.0626 16.23C23.8453 18.0109 23.384 20.2007 23.7796 22.3203C24.1752 24.4399 25.3955 26.3169 27.1736 27.5405H1.1111ZM31.8269 27.8884C30.6822 27.8881 29.5547 27.6098 28.5417 27.0774C27.5288 26.5449 26.6608 25.7744 26.0127 24.8323L29.0549 23.0786C29.3887 23.4919 29.8109 23.8253 30.2905 24.0543C30.7702 24.2834 31.2952 24.4023 31.8269 24.4023C32.3586 24.4023 32.8836 24.2834 33.3632 24.0543C33.8429 23.8253 34.2651 23.4919 34.5989 23.0786L37.6442 24.8323C36.9959 25.7747 36.1276 26.5453 35.1144 27.0778C34.1011 27.6102 32.9733 27.8884 31.8282 27.8884H31.8269ZM2.91242 7.20994C2.91242 7.06291 2.97089 6.92189 3.07498 6.81788C3.17907 6.71387 3.32027 6.65538 3.46753 6.65526H5.51196C5.6593 6.65526 5.80061 6.7137 5.9048 6.81773C6.00898 6.92175 6.06751 7.06283 6.06751 7.20994C6.06751 7.35705 6.00898 7.49814 5.9048 7.60216C5.80061 7.70618 5.6593 7.76462 5.51196 7.76462H3.46753C3.32058 7.76415 3.17979 7.70557 3.076 7.60169C2.97221 7.49781 2.91387 7.35711 2.91376 7.21039L2.91242 7.20994ZM13.3226 7.20994C13.3226 7.35705 13.264 7.49814 13.1599 7.60216C13.0557 7.70618 12.9144 7.76462 12.767 7.76462H7.96528C7.81794 7.76462 7.67663 7.70618 7.57244 7.60216C7.46826 7.49814 7.40973 7.35705 7.40973 7.20994C7.40973 7.06283 7.46826 6.92175 7.57244 6.81773C7.67663 6.7137 7.81794 6.65526 7.96528 6.65526H12.7684C12.8413 6.65526 12.9136 6.66963 12.9811 6.69753C13.0485 6.72543 13.1098 6.76633 13.1613 6.81788C13.2129 6.86944 13.2539 6.93064 13.2817 6.99798C13.3096 7.06533 13.324 7.13751 13.3239 7.21039L13.3226 7.20994ZM2.91376 10.5766C2.91376 10.4296 2.97223 10.2886 3.07632 10.1846C3.18041 10.0806 3.3216 10.0221 3.46887 10.0219H5.5133C5.66064 10.0219 5.80194 10.0804 5.90613 10.1844C6.01032 10.2884 6.06885 10.4295 6.06885 10.5766C6.06885 10.7237 6.01032 10.8648 5.90613 10.9688C5.80194 11.0729 5.66064 11.1313 5.5133 11.1313H3.46887C3.39593 11.1313 3.32371 11.117 3.25633 11.0891C3.18895 11.0612 3.12774 11.0203 3.07619 10.9688C3.02464 10.9173 2.98376 10.8561 2.95589 10.7889C2.92801 10.7216 2.9137 10.6494 2.91376 10.5766ZM13.3239 10.5766C13.324 10.6495 13.3096 10.7216 13.2817 10.789C13.2538 10.8563 13.2129 10.9175 13.1613 10.969C13.1097 11.0205 13.0485 11.0613 12.981 11.0892C12.9136 11.1171 12.8413 11.1314 12.7684 11.1313H7.96528C7.81794 11.1313 7.67663 11.0729 7.57244 10.9688C7.46826 10.8648 7.40973 10.7237 7.40973 10.5766C7.40973 10.4295 7.46826 10.2884 7.57244 10.1844C7.67663 10.0804 7.81794 10.0219 7.96528 10.0219H12.7684C12.9157 10.0219 13.057 10.0804 13.1612 10.1844C13.2654 10.2884 13.3239 10.4295 13.3239 10.5766Z" fill="black"/>
</svg>
