<svg width="35" height="34" viewBox="0 0 29 28" fill="none" xmlns="http://www.w3.org/2000/svg">
<path d="M18.7 7.93413C18.7 5.61555 16.8186 3.73413 14.5 3.73413C12.1815 3.73413 10.3 5.61555 10.3 7.93413C10.3 10.2527 12.1815 12.1341 14.5 12.1341C16.8186 12.1341 18.7 10.2527 18.7 7.93413ZM11.233 7.93413C11.233 6.13239 12.6994 4.6671 14.5 4.6671C16.3007 4.6671 17.7671 6.13239 17.7671 7.93413C17.7671 9.73476 16.3007 11.2001 14.5 11.2001C12.6994 11.2001 11.233 9.73476 11.233 7.93413Z" fill="black"/>
<path d="M27.909 9.08617C27.5449 8.87478 27.1066 8.88142 26.7503 9.10719L21.4491 12.3455C22.0467 10.8868 22.433 9.37059 22.433 7.86767C22.433 3.52933 18.8749 0 14.5 0C10.1251 0 6.56704 3.52933 6.56704 7.86767C6.56704 8.42213 6.61794 8.9766 6.71976 9.53107L1.18506 11.9957C0.77004 12.1772 0.5 12.5934 0.5 13.0449V25.179C0.5 25.5719 0.696996 25.9293 1.02459 26.1407C1.35328 26.3598 1.76166 26.3886 2.11913 26.2281L9.26411 23.0563C9.32277 23.0275 9.38806 23.0275 9.44672 23.0563L19.0862 27.876C19.2467 27.9635 19.4293 28 19.6042 28C19.8078 28 20.0126 27.9425 20.2018 27.8329L27.9455 23.0928C28.2886 22.8892 28.5 22.5096 28.5 22.1156V10.0844C28.5 9.66941 28.2809 9.2898 27.909 9.08617ZM14.5 0.934071C18.3569 0.934071 21.5 4.04727 21.5 7.86767C21.5 13.1467 16.2796 18.8353 14.6826 20.4533C14.5797 20.5551 14.4192 20.5551 14.3174 20.4533C12.7204 18.8353 7.5 13.1467 7.5 7.86767C7.5 4.04727 10.6431 0.934071 14.5 0.934071ZM1.73953 25.3749C1.64435 25.4191 1.57241 25.3826 1.53589 25.3605C1.49937 25.3383 1.43296 25.2808 1.43296 25.179V13.0449C1.43296 12.9575 1.48387 12.8778 1.56466 12.8479L6.91676 10.464C7.32514 12.0533 8.05447 13.6071 8.9 15.0281V22.1964C8.89225 22.1964 8.88561 22.203 8.88561 22.203L1.73953 25.3749ZM9.86285 22.2251C9.8551 22.2185 9.84071 22.2185 9.83296 22.2108V16.4868C11.306 18.6383 12.8809 20.3293 13.6545 21.1096C13.8802 21.3431 14.1791 21.467 14.5 21.467C14.8209 21.467 15.1198 21.3431 15.3455 21.1096C16.1191 20.3293 17.694 18.6383 19.167 16.4868V26.8778L9.86285 22.2251ZM27.567 22.1156C27.567 22.1886 27.5305 22.2617 27.4641 22.2982L20.1 26.797V15.0281C20.3258 14.6496 20.5372 14.2634 20.7419 13.8694L27.2383 9.90292C27.3335 9.84427 27.4209 9.88079 27.4575 9.89518C27.5006 9.91731 27.567 9.97486 27.567 10.0844V22.1156Z" fill="black"/>
</svg>
