<svg width="88" height="98" viewBox="0 0 88 98" fill="none" xmlns="http://www.w3.org/2000/svg">
<path d="M21.8061 3.26195C21.8959 3.27367 21.9779 3.27367 22.0561 3.27367H22.2397C22.3217 3.31273 22.3998 3.3557 22.4701 3.39476C22.4623 3.4846 22.4623 3.58617 22.4623 3.67601C22.4623 4.12913 22.4623 5.33221 23.4506 6.32051C24.0951 6.96504 24.8451 7.1877 25.3998 7.26973C25.7435 7.54317 26.0678 7.70332 26.2592 7.79317C26.3295 7.83223 26.4115 7.86349 26.4896 7.89473C27.1771 8.16817 27.8138 8.30879 28.349 8.41817L28.4701 8.45724C28.7826 8.5588 29.1068 8.60958 29.4311 8.60958H29.6733C29.8647 8.62911 30.0483 8.64864 30.2397 8.64864C31.2006 8.64864 32.1381 8.32442 32.935 7.71895C32.935 7.71895 32.9858 7.69942 33.0873 7.66817C32.8451 7.89083 32.5834 8.18379 32.3412 8.56661C32.1381 8.62911 31.9272 8.70723 31.6967 8.82833C30.9272 9.21114 30.3647 9.89863 30.142 10.7072C29.6654 11.5158 29.5873 12.5158 29.9506 13.4025C30.0014 13.5236 30.06 13.6447 30.1225 13.758C30.0131 13.84 29.8998 13.9416 29.7982 14.0392L29.5951 14.2424C28.9076 14.9299 28.5951 15.9104 28.7475 16.8674C28.767 16.9767 28.7865 17.09 28.8178 17.1994C28.8568 17.6955 28.9897 18.2892 29.3334 18.8869C29.3334 19.2424 29.4037 19.5939 29.517 19.926C29.5365 20.2502 29.6068 20.5705 29.7397 20.8752C30.1225 21.8127 30.9506 22.4807 31.9233 22.6838C32.0326 22.8557 32.1654 23.0276 32.3178 23.1682C32.974 23.8244 33.642 24.0862 34.2084 24.1994C34.2279 24.2189 34.2474 24.2306 34.2787 24.2502C34.3685 24.383 34.4623 24.5041 34.5717 24.6135C34.5209 24.7345 34.4701 24.8674 34.4389 24.9885C34.4193 25.008 34.4076 25.0392 34.3881 25.0588C34.1068 25.5119 33.9545 26.0275 33.9115 26.5432C33.5639 27.1408 33.3685 27.758 33.3685 28.4221C33.3685 29.5744 34.0248 30.6135 35.013 31.1174L35.1654 31.2697C35.5794 31.6838 36.013 31.8947 36.3177 32.0158C36.4583 32.0861 36.6107 32.1564 36.763 32.2072C36.845 32.2385 36.9232 32.2697 36.9935 32.2971C37.3763 32.8517 37.9427 33.2775 38.5912 33.5002C38.6732 33.5705 38.7748 33.6408 38.8841 33.7111C38.974 33.7814 39.0677 33.8439 39.1459 33.8947C39.3177 34.0353 39.5091 34.1564 39.7123 34.258C40.2357 34.5197 40.7435 34.6525 41.267 34.6525C41.5912 34.8244 41.974 34.965 42.4272 35.0353C42.7084 35.2189 43.0131 35.3595 43.3256 35.4494C43.3569 35.4689 43.3881 35.4884 43.4154 35.5001C44.0717 35.9142 44.7201 35.9845 45.1029 35.9845C45.3139 35.9845 45.5287 35.965 45.7201 35.922C46.0444 36.0119 46.3764 36.0626 46.7006 36.0626C46.9037 36.0626 47.1029 36.0431 47.2983 36.0119C47.6615 36.5783 48.2084 37.0119 48.8452 37.2346C49.4819 37.7814 50.271 38.0744 51.0991 38.0744C51.6459 38.551 52.353 38.8127 53.0874 38.8127H53.1889C53.4624 38.8127 53.7241 38.7736 53.978 38.7111C54.0405 38.7307 54.1108 38.7424 54.1889 38.7619C54.2514 38.7814 54.3295 38.801 54.4116 38.8244C54.7241 38.9142 55.0483 38.965 55.3803 38.965C55.6342 38.965 55.8647 38.9338 56.0678 38.8947C56.3803 39.0275 56.7124 39.0978 57.0483 39.1174H57.2085C57.2983 39.301 57.3999 39.4807 57.521 39.633C57.1264 40.1877 56.9038 40.8635 56.9038 41.5432C56.9038 42.3518 57.228 43.1174 57.7944 43.6838L57.8842 43.7736C58.0249 43.9455 58.2671 44.2502 58.6538 44.5197C58.6655 44.5314 58.685 44.5393 58.6928 44.551C58.6303 45.2697 58.8256 45.8752 59.0483 46.3205C59.0874 46.4103 59.1381 46.4924 59.1889 46.5744C59.2592 46.9181 59.392 47.2619 59.5835 47.5627C59.6538 47.6838 59.7436 47.8049 59.8374 47.9064C59.8999 48.1291 59.9897 48.3595 60.0913 48.5822C60.1225 48.6525 60.1303 48.7033 60.1538 48.7424V48.9025C60.0522 48.8908 59.9506 48.883 59.8491 48.883H59.4467C59.2436 48.883 59.0522 48.9025 58.8491 48.9455C58.6889 48.9767 58.5444 48.9845 58.4038 49.008C58.1928 49.0275 57.9272 49.0588 57.6342 49.1095C56.5639 49.2306 55.6654 49.8166 55.1498 50.6642C55.017 50.7541 54.8881 50.8674 54.7748 50.9885C54.5014 51.2619 53.685 52.0783 53.685 53.4338C53.685 53.6056 53.685 53.9181 53.7671 54.301C53.6265 54.5119 53.5132 54.7345 53.4233 54.9689C53.3608 55.0314 53.3022 55.1017 53.2397 55.1799C52.8257 55.2697 52.4702 55.3635 52.1499 55.4416C52.0093 55.4728 51.8765 55.5236 51.7476 55.5744C51.5367 55.6369 51.1304 55.7658 50.7164 56.051C49.9195 56.5275 49.1422 57.133 48.4234 57.8596C47.6343 58.6486 47.0914 59.4651 46.7554 60.344C46.6226 60.4963 46.5015 60.6682 46.3999 60.84C46.3804 60.8713 46.3609 60.9104 46.3374 60.9416L46.146 61.133C44.7632 61.5354 43.7124 62.3947 43.0054 63.6877C42.3609 63.8908 41.7632 64.2033 41.2593 64.6252C41.0679 64.7346 40.857 64.8987 40.6421 65.1213L40.5406 65.2229C40.4078 65.3557 40.0953 65.6682 39.8453 66.1604C39.7359 66.3908 39.6421 66.6252 39.5913 66.8674C39.5093 66.8557 39.4312 66.8557 39.3492 66.8557H39.146C37.9741 66.8557 36.9624 67.5236 36.4585 68.4924C35.7007 68.5744 35.1655 68.8752 34.9624 68.9963C34.9507 68.9963 34.9507 69.008 34.9429 69.008C34.771 69.0588 34.6109 69.1174 34.4585 69.1994C33.7632 69.5549 32.5796 70.4221 32.5796 72.3088V72.4299C32.0953 73.6408 32.4585 74.6916 32.5992 75.1057L32.6304 75.1877C32.6421 75.2268 32.6617 75.2893 32.6812 75.3401C32.3882 76.3088 32.4976 77.1174 32.732 77.7346C32.6421 78.3401 32.7007 78.9651 32.9156 79.6018L32.9273 79.633C32.6734 80.3088 32.6734 80.8947 32.6734 81.1096V81.1799C32.5913 81.3206 32.5132 81.4729 32.4195 81.6135C32.2359 81.9456 32.0562 82.2581 31.8648 82.551C31.8335 82.5901 31.814 82.6331 31.7827 82.6721C30.8218 84.2776 30.9546 85.6213 31.3062 86.551V86.5705C31.2671 86.762 31.2437 86.9651 31.2437 87.1682V87.3713C30.5757 87.7854 30.0835 88.4221 29.8609 89.1799C29.7984 89.2815 29.689 89.4338 29.5796 89.5745C29.2476 89.8792 28.982 90.2307 28.7906 90.6136C27.357 90.7659 26.2164 91.6761 25.7515 93.0667C25.7124 93.1995 25.6694 93.3284 25.6499 93.4612C25.6304 93.512 25.6109 93.5706 25.5874 93.6331C25.5757 93.6135 25.5679 93.5823 25.5679 93.5628C25.5366 93.4729 25.5171 93.3909 25.478 93.3088C25.4077 93.137 25.3374 92.7424 25.2749 92.4612L25.2241 92.2307C25.2046 92.1096 25.1851 92.0276 25.1421 91.9065L25.1226 91.8245C25.1109 91.7542 25.0913 91.6643 25.0718 91.5627C25.0523 91.2502 24.9898 90.8557 24.8296 90.4299V90.4104C24.7984 90.2581 24.7593 90.0354 24.6694 89.7659C24.6382 89.4417 24.5796 89.1917 24.5288 88.9964C24.4976 88.8557 24.4585 88.7151 24.4194 88.5823C24.3804 88.3596 24.2984 88.0159 24.1148 87.6214C24.0835 87.5315 24.0327 87.3987 23.9624 87.2385C23.9116 87.0979 23.8609 86.9651 23.8101 86.844C23.7788 86.7737 23.7476 86.6917 23.7202 86.6135C23.7007 86.551 23.6812 86.5042 23.6577 86.4417C23.4546 85.9378 23.2319 85.3792 22.8999 84.7737C22.8882 84.7541 22.8804 84.7229 22.8687 84.7034C22.8491 84.6526 22.8374 84.6135 22.8179 84.5705C22.6968 83.6604 22.271 82.8752 21.6148 82.3088C21.2398 81.4924 20.8765 80.7619 20.5132 80.0471C20.4038 79.8245 20.3296 79.5432 20.3296 78.8752C20.3296 77.7854 20.1187 76.8049 19.6929 75.8752C19.6812 75.8362 19.6812 75.7854 19.6733 75.7424C19.6421 75.5393 19.603 75.2893 19.5327 75.0042C19.3491 74.2659 19.0483 73.4064 18.228 72.59C18.1772 72.5393 18.1186 72.4807 18.0561 72.4299C18.0366 72.4104 17.9351 72.2697 17.896 71.965C17.8765 71.6525 17.814 71.3908 17.7554 71.176C17.7554 71.1565 17.7436 71.1447 17.7436 71.1252C17.7436 70.4377 17.5132 69.6291 16.7749 68.8127V68.7932C16.7124 68.3166 16.6343 67.844 16.5522 67.3791C16.4897 67.0666 16.4428 66.7424 16.3999 66.4416V65.1291C16.3999 64.4924 16.2905 63.926 16.1772 63.4729C16.1655 63.3908 16.1577 63.3127 16.1382 63.2307C16.0561 62.8166 15.9975 62.5119 15.9975 62.2112C15.9975 61.7659 15.935 61.3635 15.814 60.9885C15.8647 60.7658 15.896 60.5354 15.896 60.2932V60.1916C15.896 59.7151 15.7866 59.2619 15.5835 58.8596C15.5718 58.2932 15.521 57.6565 15.3999 57.0119C15.6108 56.4768 15.7436 56.0236 15.8452 55.5588C16.0054 55.133 16.0991 54.6604 16.0991 54.1447C16.0991 53.6408 16.0991 52.8517 15.6968 51.9924C15.7983 51.6174 15.8296 51.2346 15.7788 50.8401C15.7397 50.5081 15.6382 50.1839 15.4976 49.8909L15.5015 49.8362V49.3323C15.5015 48.0276 14.6616 46.8675 13.4312 46.4534L13.1265 46.3518C12.8062 46.2503 12.4819 46.2034 12.1577 46.2034C11.4116 46.2034 10.6616 46.4847 10.0952 47.012C9.6421 47.4378 9.33741 47.9807 9.19678 48.5667C8.82178 49.0823 8.62256 49.7073 8.62256 50.3558V50.4574C8.62256 50.5277 8.62256 50.598 8.63428 50.6605C8.48194 50.7113 8.34131 50.7699 8.2085 50.8206C8.13819 50.8519 8.05616 50.8831 7.97803 50.9105C7.82569 50.9613 7.67334 51.0199 7.53272 51.0941C7.48194 51.1136 7.42334 51.1331 7.36084 51.1644L7.34912 51.1527C7.23975 51.0003 7.12646 50.8792 7.03662 50.7894C7.00537 50.7503 6.97412 50.7191 6.95459 50.68L6.45068 50.055C6.50146 50.0159 6.56006 49.973 6.61084 49.9339C7.31787 49.7503 7.81394 49.3792 8.13424 49.055C8.82174 48.3675 9.13424 47.387 8.9819 46.43C8.89206 45.8753 8.65768 45.3675 8.30612 44.9534C8.33737 44.9417 8.37643 44.9417 8.40768 44.9339C10.3257 44.5511 11.3452 43.3089 11.3452 41.3597C11.3452 41.219 11.3335 41.0784 11.3139 40.9339C11.2046 40.1644 11.0717 39.3597 10.7905 38.4886C10.771 38.4261 10.7514 38.3675 10.7397 38.3284C10.7397 37.0862 10.1225 36.0159 9.18501 35.4182C9.21626 35.2581 9.22407 35.0862 9.22407 34.9026C9.22407 34.3675 9.09126 33.8635 8.84907 33.4182C8.97016 33.4065 9.07954 33.3987 9.20454 33.387C9.56001 33.3752 9.91157 33.3049 10.2436 33.176C10.3921 33.1018 10.5132 33.0705 10.7436 33.0705C12.3803 33.0705 13.8061 32.2737 14.7827 30.8088C14.9156 30.6057 15.0249 30.3948 15.107 30.1643C15.1382 30.1135 15.1577 30.0628 15.189 30.0237C15.2202 29.9729 15.2515 29.9143 15.2788 29.8635C15.4702 29.7737 15.6226 29.6799 15.732 29.6096C16.5913 29.2659 17.732 28.5002 18.4078 26.8205C18.4273 26.7697 18.4468 26.7111 18.4703 26.6486L18.5718 26.344C19.603 26.0002 20.3999 25.1135 20.5913 24.012C20.6616 23.6291 21.1655 23.0315 21.439 22.7073L21.6694 22.4768C21.8101 22.3362 21.9429 22.1838 22.0444 22.0119L22.6499 21.1018C22.9741 20.6252 23.146 20.1643 23.2241 19.7385C23.2866 19.719 23.3452 19.6994 23.396 19.6682C24.2124 19.3947 24.8999 18.7776 25.2437 17.9494C25.7086 16.8166 25.4547 15.5158 24.5875 14.6447C24.0718 14.1291 23.5172 13.8283 22.9898 13.6564C22.8687 13.4962 22.728 13.3517 22.5757 13.2228C22.4859 13.0197 22.3726 12.8283 22.2437 12.6564V11.0392C22.2437 10.6837 22.2437 9.9689 21.9312 9.2228C21.9429 9.17201 21.9624 9.12124 21.9702 9.07046C22.0093 8.92984 22.0718 8.73843 22.1031 8.49624C22.1343 8.39468 22.1538 8.2853 22.1851 8.16421C22.396 7.31655 22.2749 6.42591 21.8101 5.67981C21.3843 4.99231 20.7281 4.50791 19.9703 4.29701C19.8883 4.26576 19.7867 4.22669 19.6773 4.19545C19.6461 4.18373 19.6148 4.17592 19.5758 4.15638C19.4508 4.01966 19.2906 3.88685 19.1187 3.77747H19.9351C20.2594 3.77747 20.5797 3.72669 20.8961 3.62513L20.9586 3.6056C21.15 3.53529 21.4506 3.44554 21.8061 3.26195ZM79.0873 28.6566C79.1771 28.6957 79.2787 28.7386 79.3802 28.766C79.6342 28.848 80.0482 28.9886 80.5911 28.9886C80.7435 28.9886 80.9544 28.9769 81.2083 28.9261C81.2904 29.1097 81.3802 29.2816 81.5013 29.4418C80.7318 29.8441 80.2591 30.391 79.9661 30.9457C79.6848 31.1175 79.47 31.2894 79.3216 31.43C79.0911 31.6019 78.8684 31.8128 78.6536 32.0863L78.513 32.2269C77.5247 33.2152 77.5247 34.3871 77.5247 34.7738V34.8754C77.5247 35.1371 77.5638 35.4105 77.6263 35.6644C77.6067 35.7035 77.5872 35.7465 77.5638 35.7855C76.7473 36.3324 76.2318 37.2386 76.2083 38.2386C76.1458 38.6917 76.0364 39.2074 75.9036 39.7425C75.8645 39.9144 75.8215 40.0745 75.7942 40.2464C75.6223 40.266 75.4504 40.2855 75.2903 40.3363C75.3293 39.9222 75.2903 39.4886 75.1497 39.0746C74.7356 37.8324 73.5833 37.0043 72.2708 37.0043H72.0676C71.884 37.0043 71.6926 37.0238 71.5129 37.055C71.4934 37.055 71.4739 37.0433 71.4504 37.0433C71.634 36.9925 71.8137 36.9222 72.0051 36.8324C72.1379 36.7933 72.3489 36.7113 72.6106 36.5785C73.3879 36.1957 73.9661 35.4887 74.1848 34.6488C74.3254 34.1332 74.3176 33.5863 74.1848 33.0824V33.0707C75.0012 32.6566 75.6379 31.9301 75.9543 30.9887C75.966 30.9691 75.966 30.9496 75.9738 30.9183C76.2473 30.6566 76.4504 30.3832 76.6105 30.1488C76.6223 30.1488 76.6301 30.1488 76.6418 30.1371C77.6418 29.8988 78.4897 29.3832 79.0873 28.6566ZM22.8451 1.70469e-05C22.7826 1.70469e-05 22.724 0.011735 22.6615 0.039079C22.56 0.039079 22.56 0.039079 22.4584 0.140639C22.3569 0.140639 22.3569 0.242199 22.2553 0.242199H22.0522C21.8608 0.121109 21.599 0.0312589 21.3569 0.0312589C21.2045 0.0312589 21.0639 0.0625091 20.9428 0.140629C20.6381 0.542969 20.2358 0.644539 19.9311 0.746099H18.7202H18.1147H18.0132C17.6108 0.746099 17.103 0.746099 16.7007 1.05079H16.4975H16.396H16.0913H15.8882C15.4858 1.05079 15.1811 1.25391 14.978 1.65626C14.978 1.75782 14.8765 1.85938 14.7749 1.96095C14.271 2.26564 14.0679 2.66798 14.0679 3.17185C14.0679 3.67576 14.3726 4.08201 14.8765 4.38275C14.978 4.38275 15.0796 4.48431 15.0796 4.48431C15.1811 4.48431 15.3843 4.58587 15.4819 4.68744C15.9858 4.99213 16.4936 5.29291 16.7944 5.79684C16.896 5.8984 16.9975 5.99997 17.0991 6.10153C17.0991 6.10153 17.2007 6.10153 17.2007 6.20309C17.2007 6.20309 17.3022 6.30465 17.4038 6.30465C17.4038 6.30465 17.5053 6.30465 17.5053 6.40621C17.7085 6.7109 18.0093 6.91012 18.517 7.01168C18.6186 7.01168 18.7202 7.11324 18.8217 7.11324C18.9233 7.11324 19.0249 7.2148 19.1264 7.2148C19.228 7.2148 19.3295 7.31636 19.228 7.51949C19.228 7.72261 19.1264 7.82418 19.1264 8.0234C19.1264 8.12496 19.0249 8.32809 19.0249 8.42574C18.8217 9.13277 18.8217 9.73824 19.1264 10.3437C19.228 10.543 19.228 10.8476 19.228 11.0508V11.2539V12.7695V12.8671C19.228 13.0703 19.228 13.2695 19.0249 13.3711C18.9233 13.4726 18.8217 13.6757 18.9233 13.7734C19.0249 13.9765 19.228 14.3789 19.7319 14.4804H19.8335V14.582C19.7319 14.8867 19.935 15.1875 20.1381 15.289C20.2397 15.3906 20.4428 15.3906 20.5405 15.4921C20.5405 15.4921 20.642 15.4921 20.642 15.5937V15.6953V16.0976C20.642 16.1992 20.642 16.3007 20.7436 16.4023C20.8452 16.5038 20.9467 16.5038 21.0483 16.5038H21.4506H21.7553C22.06 16.5038 22.2592 16.6054 22.4624 16.8085C22.3608 16.8085 22.2592 16.9101 22.1577 16.9101C21.853 17.0117 21.5522 17.2148 21.146 17.414C20.6421 17.6171 20.2358 17.9179 19.9351 18.121C19.7319 18.2226 19.7319 18.3242 19.7319 18.4257C19.7319 18.5273 19.7319 18.6288 19.9351 18.7304C20.3374 18.9335 20.3374 19.1328 20.1382 19.4374C19.9351 19.7421 19.7358 20.0429 19.5327 20.3476L19.228 20.6523C18.521 21.4609 17.8139 22.3711 17.6108 23.4804C16.7007 23.582 16.2983 23.9843 15.892 24.7929C15.7905 25.0976 15.6889 25.3984 15.5873 25.7031C15.3842 26.207 15.0834 26.6132 14.5756 26.8125C14.2709 26.914 14.0717 27.1171 13.767 27.2148C13.2631 27.5195 12.8569 27.9218 12.6576 28.3242C12.5561 28.5273 12.353 28.8281 12.2553 29.1328C11.853 29.7383 11.3451 30.0429 10.7397 30.0429C10.1342 30.0429 9.6303 30.1445 9.1225 30.3476H8.91938C8.81782 30.3789 8.73579 30.3867 8.66547 30.3867C8.45453 30.3867 8.36078 30.2773 8.21235 30.0429V29.9414C8.11079 29.8398 8.11079 29.7383 8.00923 29.6367C7.85689 29.414 7.64595 29.2929 7.38423 29.2929C7.29439 29.2929 7.20064 29.3047 7.10298 29.332C7.00142 29.332 6.79829 29.4336 6.79829 29.6367C6.79829 29.7383 6.69673 29.8398 6.69673 29.8398C6.19282 30.0429 6.09126 30.4453 5.9897 30.8515C5.88814 31.2539 5.78657 31.457 5.38423 31.5586C4.77876 31.7617 4.47407 32.2656 4.37253 32.8711C4.27097 33.375 4.27097 33.7812 4.57565 34.082C4.77877 34.3866 5.18112 34.5859 5.68505 34.6874H5.78661C5.88817 34.6874 5.98974 34.6874 6.0913 34.789C6.0913 34.789 6.19286 34.789 6.19286 34.8905C6.19286 34.9921 6.0913 35.0937 6.0913 35.1952C5.98974 35.4999 5.88818 35.8007 5.88818 36.2069C5.78662 37.0155 6.0913 37.621 6.99758 37.8241L7.10696 37.8163C7.20852 37.8163 7.31008 37.8163 7.41165 37.9179C7.61478 37.9179 7.71634 38.121 7.71634 38.3202V38.4218C7.71634 38.7265 7.8179 39.1288 7.91946 39.4335C8.12258 40.0389 8.22415 40.6444 8.3218 41.3515C8.3218 41.8554 8.3218 41.8554 7.81789 41.9569C7.81789 41.9569 7.71633 41.9569 7.71633 41.8554C7.51321 41.5507 7.31399 41.453 7.0093 41.453C6.40383 41.453 5.8999 41.5546 5.4937 41.8554C5.39214 41.9569 5.29058 42.0077 5.1812 42.0077C5.07182 42.0077 4.93901 41.9569 4.78667 41.8554C3.97808 41.453 3.16947 41.3515 2.46247 41.2499C2.06013 41.2499 1.857 41.2499 1.75544 41.453C1.55232 41.6562 1.55232 41.8554 1.55232 42.2616V42.4647H1.45076H1.3492H1.14608C0.642172 42.4647 0.134382 42.7694 0.0366821 43.2733C-0.0648779 43.6757 0.036682 44.1835 0.439022 44.4842C0.540582 44.4842 0.540582 44.5858 0.540582 44.6874C0.642142 45.3944 1.14605 45.6991 1.55228 45.8983C1.7554 45.9998 1.95462 46.1014 2.15775 46.3006C2.25931 46.4022 2.36087 46.4022 2.46244 46.5037C2.564 46.6053 2.76713 46.7068 2.86478 46.7068C3.0679 46.8084 3.26712 47.0115 3.57181 47.1092C3.77493 47.2107 3.95462 47.2615 4.1265 47.2615C4.29838 47.2615 4.48197 47.2107 4.68509 47.1092C4.88821 47.0076 4.98978 47.0076 5.189 46.9061C5.34134 46.8553 5.49369 46.824 5.63431 46.824C5.77493 46.824 5.89603 46.8553 5.99759 46.9061C5.89603 47.0076 5.79447 47.0076 5.6929 47.0076C5.38821 47.0076 5.08743 47.2107 4.88431 47.41C4.68119 47.6131 4.48197 47.7147 4.17728 47.8123H3.97415C3.66946 47.8123 3.36868 47.9139 3.06399 48.0154C2.99368 48.0545 2.9429 48.0779 2.90383 48.0779C2.83352 48.0779 2.79445 48.0076 2.66164 47.8162C2.5093 47.5857 2.35695 47.4725 2.12648 47.4725C2.04445 47.4725 1.9546 47.4842 1.85304 47.5115C1.54835 47.6131 1.4507 47.8162 1.4507 48.2186C1.4507 48.6209 1.65382 49.0271 1.95461 49.3279C2.05617 49.4334 2.05617 49.4334 2.15773 49.535C2.25929 49.6365 2.36085 49.7381 2.46242 49.8397C2.96633 50.4451 3.37258 51.0506 3.77492 51.5585L4.58351 52.5702C4.68507 52.7733 4.8882 52.8749 4.98585 53.0741C5.68116 53.8436 6.41945 54.2147 7.27885 54.2147C7.67338 54.2147 8.07573 54.1326 8.52105 53.9842C8.62261 53.8827 8.82574 53.8826 8.92339 53.7811C9.22808 53.6795 9.4273 53.578 9.73198 53.4764C10.2359 53.3748 10.6421 53.1717 11.0445 52.9725C11.146 52.8709 11.2476 52.8709 11.4468 52.7694C11.6499 52.6678 11.8492 52.4647 11.8492 52.1639V51.9608V51.4569C11.9507 51.0545 11.8492 50.7498 11.646 50.4452V50.3436L11.7476 50.2421C12.1499 50.0389 12.2515 49.6366 12.1499 49.2304L12.4546 49.3319V49.4335V49.8358V50.0389C12.2515 50.746 12.2515 50.9491 12.7593 51.2498C12.357 51.6522 12.2554 51.9569 12.5562 52.5623C12.6578 52.7654 12.7593 52.9647 12.8609 53.1678C13.064 53.4725 13.064 53.7733 13.064 54.1795C13.064 54.2811 13.064 54.4842 12.9625 54.5818C12.8609 55.0858 12.7593 55.492 12.5601 55.9959C12.357 56.3983 12.2554 56.8045 12.357 57.3084C12.5601 58.117 12.5601 59.0272 12.5601 59.7342C12.5601 59.8358 12.5601 60.1366 12.8648 60.2382V60.3436C12.5601 60.8475 12.5601 61.2538 12.8648 61.8592C12.9664 61.9608 12.9664 62.1639 12.9664 62.2616C12.9664 62.867 13.0679 63.371 13.1695 63.8788V63.9803C13.271 64.3827 13.3726 64.7889 13.3726 65.1912V65.8982V66.7068C13.4742 67.5154 13.6773 68.4256 13.7749 69.2302V69.3318C13.8765 69.9373 14.0796 70.4412 14.3804 70.7459L14.482 70.8475C14.6851 71.0506 14.7867 71.1522 14.6851 71.3514V71.5545C14.6851 71.656 14.6851 71.656 14.7867 71.7576C14.7867 71.9607 14.8882 72.0623 14.8882 72.2615C14.9898 73.2732 15.3921 74.1795 16.0991 74.7849C16.4038 75.0896 16.5015 75.3904 16.603 75.7966C16.7046 76.199 16.7046 76.7068 16.9077 77.1091C17.2124 77.7146 17.3101 78.32 17.3101 78.9255C17.3101 79.8357 17.4116 80.6443 17.814 81.4489C18.2163 82.2575 18.6226 83.0661 19.0249 83.9723C19.1264 84.1754 19.3296 84.3747 19.5288 84.5778C19.7319 84.6793 19.8335 84.8825 19.8335 85.1833C19.935 85.5856 20.0366 85.7887 20.1382 86.0934C20.4428 86.5973 20.6421 87.1051 20.8452 87.609C20.9467 87.9137 21.0483 88.1129 21.1499 88.4176C21.2514 88.6207 21.2514 88.7223 21.353 88.9215C21.4546 89.1247 21.4546 89.4254 21.5561 89.6285C21.5561 89.7301 21.6577 89.9332 21.6577 90.1325C21.6577 90.3356 21.6577 90.4371 21.7592 90.6364C21.8608 90.9411 21.8608 91.1403 21.9624 91.445C22.0639 91.6481 22.0639 91.8473 22.0639 92.0504C22.1655 92.3551 22.1655 92.5543 22.267 92.859C22.3686 93.3629 22.4702 93.9684 22.6694 94.4762C22.9741 95.4879 23.478 96.195 24.2866 96.4957C24.7905 96.6988 25.1967 96.8981 25.7007 97.2028C25.9038 97.3043 26.2046 97.4059 26.5093 97.4059C26.6108 97.4059 26.7124 97.4059 26.9116 97.3043C27.4155 97.1012 27.9233 96.902 28.4272 96.3942C28.6303 96.191 28.6303 95.8903 28.5288 95.6871V95.5856C28.5288 95.3825 28.4272 95.1832 28.4272 94.9801C28.4272 94.6754 28.5288 94.4762 28.6303 94.1715V94.07C28.7319 93.7653 28.935 93.6676 29.2358 93.6676C29.3452 93.6871 29.4663 93.6989 29.5795 93.6989C30.0639 93.6989 30.5405 93.5465 30.9545 93.4684C31.3569 93.3668 31.56 93.1637 31.4585 92.6598C31.3569 92.2575 31.4585 91.9528 31.7631 91.7496C32.1655 91.2457 32.5717 90.7379 32.7748 90.1324C32.7748 90.0309 32.8764 89.9293 33.0795 89.9293C33.3842 89.9293 33.685 89.9293 33.9897 90.0309C34.0913 90.0309 34.2944 90.0309 34.2944 89.9293C34.2944 89.9293 34.3959 89.8278 34.3959 89.7262L34.3803 89.6364C34.3803 89.3317 34.4819 89.1324 34.3803 88.8278C34.2788 88.2223 34.2788 87.7184 34.2788 87.2106C34.3803 86.7067 34.3803 86.1012 34.1772 85.5934C33.9741 85.191 34.0756 84.7848 34.3803 84.2809C34.7827 83.6754 35.0873 83.07 35.392 82.5621L35.4936 82.3589C35.6967 81.9566 35.7983 81.5503 35.6967 81.148C35.6967 81.0465 35.6967 80.8433 35.7983 80.6441C36.0014 80.2418 36.1029 79.8355 36.0014 79.4332C35.8998 79.2301 35.8998 79.0309 35.7983 78.7262C35.6967 78.4215 35.6967 78.2223 35.7983 78.0192C36.0014 77.6168 36.0014 77.2106 35.6967 76.9098C35.4936 76.7066 35.4936 76.5074 35.5951 76.2027C35.7983 75.5973 35.7983 74.9918 35.4936 74.2847C35.392 73.98 35.2905 73.7808 35.392 73.5777C35.5951 73.1754 35.5951 72.8707 35.5951 72.3668C35.5951 72.1637 35.5951 72.0621 35.7983 71.9645H35.8998C36.0014 71.9645 36.0014 71.9645 36.1029 71.8629C36.2045 71.8629 36.3061 71.7613 36.3061 71.7613C36.5092 71.6598 36.6107 71.5582 36.81 71.5582H36.9115C37.0131 71.6598 37.0131 71.6598 37.1147 71.7613C37.2162 71.8629 37.3178 71.9645 37.4193 71.9645C37.6225 72.066 37.8217 72.066 38.0248 72.066C38.1264 72.066 38.2279 71.9645 38.3295 71.8629C38.4311 71.6598 38.4311 71.4606 38.5326 71.359C38.6342 71.1559 38.6342 70.9567 38.7357 70.7535C38.7357 70.652 38.8373 70.5504 38.8373 70.5504C39.0404 70.4488 39.142 70.3473 39.142 70.1481V69.9449H39.3451C39.4467 69.9449 39.4467 69.9449 39.5482 70.0465C39.6498 70.0465 39.7514 70.1481 39.8529 70.1481C39.8529 70.1481 40.1576 70.1481 40.2553 70.0465C40.3568 69.8434 40.56 69.8434 40.7592 69.8434H41.0639H41.3686C41.8725 69.8434 42.2787 69.6403 42.478 69.2379C42.6811 68.734 42.7826 68.2262 42.5795 67.7223C42.478 67.6208 42.5795 67.5192 42.6811 67.4176L42.7826 67.3161C42.8842 67.2145 42.9858 67.2145 43.0873 67.1129C43.2904 66.9098 43.5912 66.7106 43.9975 66.609C44.8061 66.4059 45.31 66.0036 45.6147 65.2965C45.9194 64.6911 46.3217 64.2848 47.0288 64.0856H47.2319C47.6342 63.8825 48.0405 63.6833 48.3413 63.277C48.4429 63.1755 48.5444 63.0739 48.646 62.9724C48.7476 62.8708 48.8491 62.7692 48.9507 62.57C48.9507 62.4685 49.0522 62.4685 49.0522 62.3669C49.2554 62.1638 49.4546 61.863 49.5562 61.5583C49.7593 60.9528 50.1616 60.4489 50.5679 60.0427C51.0718 59.5388 51.6773 59.031 52.3843 58.6286C52.4858 58.527 52.6889 58.527 52.8882 58.4255C53.2905 58.3239 53.6968 58.2224 54.2007 58.1208L54.603 58.0192C55.0053 57.9177 55.2085 57.7145 55.4116 57.4138C55.5132 57.2106 55.6147 57.1091 55.7163 57.0114C55.9194 56.8083 56.1186 56.6091 56.2202 56.3044C56.2202 56.1013 56.3218 55.9021 56.6225 55.8005C56.7241 55.6989 56.8257 55.6989 56.9272 55.5974C57.1303 55.3942 57.3296 55.195 57.3296 54.9919C57.3296 54.7888 57.3296 54.488 57.1264 54.2849C57.0249 54.1833 57.0249 54.0817 56.9233 53.9802L56.8218 53.8786C56.7202 53.7771 56.7202 53.6755 56.7202 53.4763C56.7202 53.3747 56.8218 53.2732 56.9233 53.1716C57.0249 53.1716 57.0249 53.07 57.1264 53.07C57.4311 52.8669 57.6304 52.6677 57.7319 52.363C57.7319 52.2614 57.8335 52.1599 58.0366 52.1599C58.5405 52.0583 58.9468 52.0583 59.4507 51.9568H59.853C59.9546 52.1599 60.1577 52.3591 60.4585 52.3591C60.7632 52.3591 61.064 52.156 61.064 51.8552H61.3687C61.4702 51.9567 61.5718 52.0583 61.5718 52.0583H61.6538C61.6851 52.0271 61.7241 52.0192 61.7554 52.0192C61.8257 52.0192 61.9155 52.0583 62.0601 52.0583H62.1616C62.1616 52.0583 62.3648 52.0583 62.4663 51.9567C62.5171 51.906 62.5484 51.8864 62.5679 51.8864C62.5874 51.8864 62.6187 51.906 62.6694 51.9567H62.771C62.853 51.988 62.9233 51.9958 62.9937 51.9958C63.1773 51.9958 63.3062 51.906 63.3765 51.7536C63.478 51.5505 63.478 51.3513 63.3765 51.0466C63.1734 50.6442 63.1734 50.6442 63.478 50.3396C63.5796 50.238 63.6812 50.0349 63.6812 49.8356C63.6812 49.7341 63.5796 49.6325 63.478 49.531C63.1733 49.3278 63.1733 49.1286 63.1733 48.6208C63.1733 48.3161 63.0718 47.9138 62.8687 47.4099C62.7671 47.2068 62.6655 47.0076 62.7671 46.8044C62.8687 46.6013 62.8687 46.4021 62.7671 46.3005C62.6655 46.199 62.564 46.0974 62.2632 45.9958H62.1616C62.3648 45.5935 62.2632 45.3904 61.8569 45.0857L61.7554 44.9841C61.6538 44.781 61.7554 44.6794 61.8569 44.4802C62.2593 44.1755 62.1616 43.9763 61.9585 43.6716C61.9585 43.3669 61.9585 43.1677 61.7554 42.863C61.5522 42.5583 61.2515 42.4607 60.8452 42.3591C60.7437 42.3591 60.6421 42.2575 60.5405 42.156C60.3374 42.0544 60.2358 41.8513 60.1382 41.7536L59.9351 41.5505C59.9351 41.449 60.0366 41.3474 60.0366 41.3474C60.3413 41.2458 60.5405 41.1443 60.7436 40.9451C60.9468 40.7419 61.0483 40.6404 61.0483 40.3396V40.238H61.2515C61.5562 40.238 61.8569 40.238 62.06 40.1365C62.2632 40.1365 62.4624 39.9334 62.4624 39.7341C62.564 39.531 62.4624 39.3318 62.3608 39.2302C62.2593 39.1287 62.1577 39.1287 62.0561 39.0271C62.0561 38.6248 61.853 38.5232 61.4507 38.5232H61.0483C60.8452 38.1209 60.5444 38.0193 60.2397 37.9177C60.1382 37.9177 60.0366 37.8162 59.935 37.8162C60.1382 37.7146 60.2397 37.4138 60.1382 37.1091L60.2397 37.0076C60.5444 36.8045 60.6421 36.6052 60.7436 36.3005V36.199H60.8452C60.8452 36.199 60.9468 36.199 60.9468 36.3005C61.0483 36.4021 61.1499 36.4021 61.2514 36.4021H61.353C61.4546 36.5037 61.6577 36.6052 61.8569 36.6052C62.2593 36.6052 62.2593 36.5037 62.3608 36.2029C62.3608 36.3044 62.4624 36.3044 62.4624 36.406C62.564 36.6091 62.6655 36.9099 62.8647 37.0115C63.1694 37.113 63.4702 37.2146 63.7749 37.3162H64.1772C64.2788 37.2146 64.2788 37.0115 64.2788 36.9138V36.8123H64.3803V36.9138C64.3803 37.0154 64.4819 37.2185 64.4819 37.3162C64.5835 37.5193 64.5835 37.6209 64.4819 37.7185C64.1772 38.1209 64.1772 38.7302 64.3803 39.1326C64.5835 39.6365 64.9858 39.9412 65.4897 40.0428C66.1968 40.1443 66.8022 40.2459 67.4077 40.2459C68.0132 40.2459 68.6186 40.1443 69.1265 40.1443C69.3297 40.1443 69.4312 40.1443 69.6305 40.0428L69.7359 40.0389C70.0094 40.0389 70.2711 39.9998 70.5445 39.9998C70.6773 39.9998 70.818 40.0115 70.9469 40.0389C71.15 40.0897 71.3492 40.1092 71.5445 40.1092C71.7359 40.1092 71.9078 40.0897 72.0601 40.0389H72.2633C71.8609 40.3436 71.7593 40.7459 71.6578 41.0506C71.6578 41.1521 71.6578 41.1521 71.5562 41.2537V41.4568C71.4547 41.9607 71.0523 42.367 70.4468 42.4685C69.7398 42.6716 68.9312 43.074 68.8296 44.1873V44.2889V44.5936C68.8296 44.9959 68.7281 45.4022 68.9312 45.703C69.2359 46.2069 69.6382 46.6131 70.0406 46.9139C70.2007 47.035 70.3961 47.0857 70.5875 47.0857C70.8922 47.0857 71.2125 46.9529 71.4547 46.7107C71.6578 46.5076 71.6578 46.2068 71.4547 46.0037C71.4547 46.0037 71.4547 45.9022 71.3531 45.9022C71.5562 45.5975 71.7554 45.1951 71.7554 44.7928H72.1578V44.8943C72.1578 44.9959 72.2593 45.199 72.2593 45.2967C72.3609 46.1052 72.4625 46.7108 72.8648 47.3162C72.9664 47.4177 72.9664 47.6208 72.9664 47.7185V47.9216V48.2263C72.9664 48.4294 73.0679 48.7302 73.0679 49.0349C73.0679 49.1365 73.2711 49.3396 73.3726 49.4372C73.5757 49.5388 73.8765 49.6404 74.0796 49.7419C74.189 49.781 74.2906 49.8044 74.3726 49.8044C74.525 49.8044 74.6539 49.7341 74.7867 49.5427C75.189 48.9372 75.5953 48.2302 75.2906 47.2185C75.189 46.8162 75.189 46.5115 75.3921 46.1091C75.4937 46.0075 75.4937 45.906 75.5953 45.8044C75.7984 45.4997 75.9 45.0974 75.7984 44.695C75.7984 44.3903 75.6968 44.0895 75.6968 43.7849V43.5817H75.7984C75.8999 43.4802 76.0015 43.4802 76.0015 43.3786C76.0015 43.2771 76.0015 43.2771 76.1031 43.2771H76.3062C76.4077 43.2771 76.5093 43.3786 76.7085 43.3786C76.9116 43.4802 77.0132 43.4802 77.2124 43.5817C77.3023 43.6013 77.396 43.6208 77.4859 43.6208C77.7593 43.6208 77.9703 43.488 78.1226 43.1755C78.2242 42.9724 78.3257 42.7731 78.3257 42.57C78.4273 42.1677 78.5288 41.863 78.6304 41.4606C78.8335 40.4489 79.1343 39.4411 79.2359 38.4294V38.3279C79.8413 38.0232 80.146 37.4177 80.4468 36.8123C80.7515 36.1052 80.8491 35.4998 80.5483 34.8943V34.7927C80.5483 34.5896 80.5483 34.488 80.6499 34.3904C80.7515 34.2888 80.853 34.1872 80.9546 34.0857C81.0561 33.9841 81.0561 33.8825 81.1577 33.8825L81.2593 33.781C81.3608 33.6794 81.4624 33.5779 81.6616 33.4763C82.0639 33.2732 82.3686 33.074 82.5718 32.5661C82.6733 32.1638 82.9741 32.0622 83.3804 31.9607C83.8843 31.9607 84.1889 31.8591 84.4898 31.5583C84.5913 31.4568 84.6929 31.4568 84.6929 31.4568C84.7944 31.4568 84.7944 31.5583 84.896 31.6599C84.896 31.6599 84.9976 31.7614 84.9976 31.863V31.9646C85.0991 32.1677 85.2007 32.2693 85.3999 32.3669C85.4624 32.3982 85.5093 32.406 85.5601 32.406C85.6694 32.406 85.7632 32.3357 85.9038 32.2653C86.0054 32.1638 86.1069 32.1638 86.1069 31.9606C86.1069 31.8591 86.1069 31.7575 86.0054 31.656C85.9038 31.5544 85.8023 31.4528 85.7007 31.3513L85.5991 31.2497C85.0952 30.6442 85.0952 30.5427 85.7007 30.0388C85.8218 30.0505 85.9312 30.0583 86.0327 30.0583C86.6577 30.0583 86.8413 29.8044 87.0132 29.6326C87.2163 29.3279 87.2163 29.1286 87.1147 28.9255C87.0132 28.7224 86.9116 28.5232 86.6108 28.3201C86.3061 28.1169 86.1069 28.0154 85.8022 27.9177C85.7007 27.9177 85.5991 27.8162 85.4976 27.8162H85.1929C85.0913 27.8162 85.0913 27.8162 84.9897 27.7146C84.8374 27.5623 84.6577 27.4841 84.4858 27.4841C84.314 27.4841 84.1304 27.5662 83.9819 27.7146C83.9819 27.613 84.0835 27.5115 84.185 27.5115C84.4897 27.4099 84.5874 27.2068 84.4897 26.906C84.4897 26.7029 84.3882 26.5037 84.2866 26.3005C84.1655 26.0583 84.0054 25.9255 83.7827 25.9255C83.6421 25.9255 83.4702 25.988 83.2788 26.0974C83.2788 25.9959 83.3803 25.9959 83.4819 25.8943C83.8842 25.7927 83.7866 25.492 83.685 25.3904C83.5835 24.988 83.2827 24.7849 83.0796 24.6834C82.9585 24.6443 82.8256 24.613 82.7046 24.613C82.521 24.613 82.3491 24.6638 82.1694 24.7849C81.8647 24.988 81.4624 25.1873 81.1577 25.3904L81.0561 25.492C80.9546 25.5935 80.853 25.6951 80.7514 25.7966C80.6889 25.9177 80.6694 25.9685 80.5991 25.9685C80.5483 25.9685 80.478 25.949 80.3452 25.8982C79.9429 25.6951 79.5366 25.5935 79.1343 25.5935C79.0327 25.5935 78.8296 25.5935 78.732 25.492C78.5288 25.4021 78.3491 25.3709 78.1851 25.3709C77.8023 25.3709 77.5601 25.5818 77.4155 25.7967C77.2124 25.9998 77.1109 26.199 76.9116 26.5037C76.7085 26.906 76.3062 27.1092 75.8999 27.2107C75.4976 27.3123 75.0913 27.4138 74.7905 27.6131C74.5874 27.7146 74.3882 27.9177 74.2866 28.117C74.0835 28.5193 73.8843 28.824 73.478 29.0271C73.0757 29.2302 72.8726 29.531 73.0757 29.9373L73.0679 30.0388C72.9663 30.3435 72.7632 30.4412 72.4624 30.4412C71.7554 30.4412 71.2515 30.6443 70.8452 30.9451C70.5405 31.0506 70.4429 31.0506 70.2397 31.0506C69.935 31.0506 69.8374 31.2537 69.7358 31.4529C69.6343 31.7576 69.6343 32.1599 69.8374 32.3631C69.9389 32.5662 70.2397 32.7654 70.646 32.7654H71.0483H71.1499V32.9685C71.0483 33.2732 71.0483 33.574 71.2514 33.8787C71.0483 33.9803 70.9467 33.9803 70.7475 34.0818C70.5444 34.1834 70.3452 34.1834 70.1421 34.1834C69.9389 34.1834 69.7397 34.1443 69.5366 34.1443C69.435 34.1443 69.3335 34.156 69.2319 34.1834C68.8686 34.324 68.5053 34.3748 68.1421 34.3748C67.6968 34.3748 67.2515 34.2928 66.8101 34.1834C66.6695 34.1209 66.5367 34.1013 66.4078 34.1013C66.0835 34.1013 65.8101 34.2615 65.5992 34.4842C65.4468 34.7068 65.1851 34.8279 64.8921 34.8279C64.7906 34.8279 64.689 34.8162 64.5874 34.7888C63.982 34.6873 63.3766 34.4841 62.6695 34.1834C62.2671 34.0818 62.064 33.781 62.064 33.3748C62.064 33.0701 62.1655 32.7693 62.1655 32.4646C62.2671 31.8591 62.2671 31.3552 62.1655 30.8474C62.064 30.4451 61.7632 30.242 61.4585 30.1404C61.396 30.1209 61.3491 30.1091 61.2866 30.1091C61.0444 30.1091 60.7905 30.2693 60.5484 30.4412C60.146 30.8435 59.8413 31.1482 59.439 31.3513C59.1343 31.5544 58.935 31.8552 59.1343 32.4607C59.2358 32.6639 59.3374 32.7654 59.3374 32.8631L59.4389 33.0662C59.5405 33.1677 59.5405 33.3709 59.4389 33.4685C59.0366 33.9724 59.1343 34.2771 59.4389 34.781C59.5405 34.8826 59.5405 35.0857 59.5405 35.1834C59.5405 35.4881 59.4389 35.6873 59.2358 35.7888C59.0327 35.8904 58.8335 35.8904 58.5288 35.8904H58.2241C58.103 35.8904 57.9624 35.8709 57.8218 35.8709C57.6108 35.8709 57.396 35.9099 57.2163 36.0935C56.9624 35.781 56.7514 35.617 56.478 35.617C56.3178 35.617 56.1343 35.6795 55.9038 35.7888C55.6928 35.8592 55.5288 35.9295 55.3803 35.9295C55.3178 35.9295 55.2593 35.9178 55.1968 35.8904C55.0952 35.8904 54.8921 35.7888 54.7944 35.7888C54.6929 35.7888 54.4897 35.6873 54.3921 35.6873C54.189 35.6365 53.9897 35.5857 53.7866 35.5857C53.5835 35.5857 53.3843 35.6365 53.1811 35.7888H53.0796L52.978 35.6873C52.978 35.6873 52.978 35.5857 52.8765 35.5857V35.4842C52.7749 35.0818 52.5718 34.8787 52.271 34.7771C52.189 34.7459 52.1186 34.7381 52.0405 34.7381C51.8374 34.7381 51.6577 34.8279 51.3647 34.9803C51.2827 35.0193 51.1929 35.0506 51.1108 35.0506C50.9897 35.0506 50.8804 34.9998 50.7554 34.8787C50.5522 34.6756 50.2514 34.3748 49.8452 34.3748V34.2732C49.9468 33.8709 49.8452 33.5662 49.6421 33.3631C49.439 33.1599 49.1382 32.9607 48.8335 32.9607H48.5288H48.3257C48.2241 32.9607 48.021 32.9607 47.9233 32.8592C47.8022 32.8201 47.6499 32.7889 47.5093 32.7889C47.3062 32.7889 47.0952 32.8396 46.9116 32.9607C46.8608 33.0115 46.7905 33.031 46.7007 33.031C46.6108 33.031 46.5093 32.9998 46.4077 32.9607C46.3061 32.9607 46.3061 32.9607 46.2046 32.8592C46.103 32.7576 45.8999 32.7576 45.8022 32.6561C45.7007 32.6053 45.5991 32.5857 45.5093 32.5857C45.4194 32.5857 45.3491 32.6053 45.2983 32.6561C45.1968 32.7576 45.0952 32.8592 45.0952 32.9607C44.9937 32.9607 44.9937 32.8592 44.8921 32.8592L44.7905 32.7576C44.5874 32.6561 44.4858 32.6561 44.2866 32.5545C44.0835 32.5545 43.9819 32.4529 43.8843 32.2498C44.0874 32.2498 43.8843 32.0467 43.4819 32.0467H43.0796C42.8765 32.0467 42.6773 32.0467 42.5757 31.8436C42.4741 31.742 42.271 31.6404 42.1734 31.5389C42.021 31.4373 41.8687 31.3865 41.7476 31.3865C41.6109 31.4022 41.5015 31.4529 41.4507 31.5545C41.3999 31.6053 41.3491 31.6248 41.2905 31.6248C41.228 31.6248 41.1499 31.5936 41.0483 31.5545C40.9468 31.4529 40.7437 31.3514 40.646 31.2498C40.4429 31.1483 40.3413 30.9451 40.1421 30.8475C40.0405 30.7459 39.8374 30.6444 39.6382 30.6444C39.5366 30.6444 39.4351 30.5428 39.4351 30.4412C39.3335 30.1365 39.2319 29.9373 38.9312 29.8358L38.5288 29.6326C38.2241 29.5311 38.0249 29.4295 37.7202 29.328C37.6187 29.2264 37.4155 29.2264 37.3179 29.1248C37.0132 28.8201 36.814 28.5194 36.4077 28.4178C36.4077 28.2147 36.6108 28.1131 36.7124 27.9139C37.0171 27.6092 37.1148 27.3084 37.0171 26.9022C36.9155 26.6991 37.0171 26.5975 37.1187 26.5975C37.2202 26.4959 37.3218 26.3944 37.3218 26.1952C37.3218 25.7928 37.5249 25.4881 37.9273 25.1835C38.0288 25.0819 38.0288 25.0819 38.1304 24.9803C38.2319 24.8788 38.3335 24.7772 38.5327 24.6757L38.6343 24.5741C38.7358 24.5741 38.7358 24.4725 38.8374 24.4725C39.0405 24.371 39.1421 24.1678 39.0405 23.9686C39.0405 23.7655 38.939 23.6639 38.7358 23.5663C38.6343 23.4647 38.5327 23.3632 38.3335 23.2616C38.2319 23.16 38.2319 23.16 38.1304 23.0585H38.0288C37.9272 22.9569 37.8257 22.8554 37.7241 22.8554C37.521 22.7538 37.2202 22.6522 37.0171 22.6522L36.814 22.5507V22.4491C36.814 21.9452 36.6108 21.7421 36.1069 21.7421H36.0054C35.8335 21.4101 35.603 21.2069 35.2358 21.2069C35.1655 21.2069 35.0835 21.2186 34.9936 21.2382C34.7905 21.2382 34.689 21.2382 34.4897 21.0351L34.4819 20.9491C34.3804 20.8476 34.2788 20.6444 34.0796 20.5468C33.978 20.4452 33.8765 20.3437 33.8765 20.2421C33.7046 19.8163 33.4741 19.6171 33.0991 19.6171C33.0288 19.6171 32.9468 19.6288 32.8687 19.6483C32.7671 19.6483 32.6655 19.7499 32.564 19.7499C32.6655 19.6483 32.7671 19.3476 32.4624 19.0429C32.3608 18.9413 32.3608 18.8397 32.4624 18.7382C32.6655 18.2343 32.564 17.9296 32.1577 17.6288C31.9546 17.4257 31.853 17.2264 31.853 16.9217C31.853 16.8202 31.9546 16.5194 31.7515 16.4178C31.853 16.3163 31.853 16.3163 31.9546 16.2147L32.0561 16.3163C32.1577 16.4178 32.1577 16.5194 32.2593 16.621C32.4429 16.8514 32.6538 16.953 32.8764 16.953C33.0366 16.953 33.2007 16.9022 33.3725 16.8202L33.4741 16.7186C33.5757 16.6171 33.6772 16.6171 33.7788 16.5155C33.8804 16.5155 33.8804 16.4139 33.9819 16.4139L34.0835 16.3124C34.3882 16.3124 34.5874 16.1092 34.5874 15.91C34.6889 15.7069 34.5874 15.5077 34.4858 15.3046C34.2827 15.1014 34.2827 14.9999 34.2827 14.6991V14.5975V14.496C34.2827 14.1913 34.2827 13.9921 34.0796 13.7889C33.978 13.6874 33.7749 13.5858 33.4741 13.5858C33.3725 13.5858 33.3726 13.5858 33.3726 13.4843C33.3726 13.3827 33.271 13.2811 33.1694 13.0819L33.0679 12.9804C33.0679 12.7772 32.9663 12.4765 32.8647 12.3749C32.8647 12.3749 32.8648 12.2733 32.7632 12.2733C32.9663 12.0702 33.0679 11.871 33.0679 11.5663C33.271 11.4647 33.3726 11.4647 33.5718 11.4647C34.2788 11.4647 34.5835 11.2616 34.7827 10.5546C34.8843 10.1522 35.0874 9.94912 35.3882 9.746C35.4897 9.64444 35.5913 9.64444 35.5913 9.54288C35.6928 9.44132 35.7944 9.44132 35.896 9.33976C36.5014 9.03507 36.8061 8.53117 36.8061 7.82416V7.71478V7.51166C36.8061 7.4101 36.9077 7.20697 36.9077 7.10932C37.1108 6.80463 37.2124 6.50385 37.0093 6.19916C37.31 5.99994 37.1069 5.79682 36.7046 5.79682C36.5014 5.79682 36.2007 5.69526 35.9975 5.5937C35.5952 5.39057 35.2905 4.98823 34.9858 4.582C34.7632 4.35934 34.5327 4.23825 34.2593 4.23825C34.1694 4.23825 34.0757 4.24997 33.978 4.27731C33.7749 4.27731 33.6733 4.37887 33.4741 4.48043C33.3725 4.48043 33.271 4.58199 33.1694 4.58199H33.0679C32.9663 4.58199 32.7632 4.68355 32.6655 4.68355C32.06 4.78511 31.5561 4.98824 31.1499 5.28902C30.8452 5.51168 30.5445 5.63277 30.2398 5.63277C30.1382 5.63277 30.0366 5.62105 29.9351 5.59371H29.6304H29.4273L29.1226 5.49215C28.6187 5.39059 28.1109 5.28903 27.607 5.08981C27.4039 4.98825 27.2046 4.88669 27.1031 4.68747C26.9507 4.37497 26.7906 4.24216 26.5484 4.24216C26.4781 4.24216 26.3882 4.25388 26.2945 4.28122H26.0913C25.8882 4.28122 25.689 4.28122 25.5874 4.17966C25.4859 4.0781 25.4859 3.87497 25.4859 3.67575C25.4859 3.47263 25.5874 3.17184 25.689 2.86716C25.7906 2.56247 25.7906 2.26169 25.689 2.05857C25.4859 1.55466 25.1851 1.24998 24.6773 1.04687C24.5757 1.04687 24.5757 0.94531 24.4742 0.94531C23.9781 0.74609 23.5718 0.64453 23.2711 0.24219C23.1968 0.08985 23.017 1.70469e-05 22.8451 1.70469e-05Z" fill="black"/>
</svg>
