<svg width="70" height="70" viewBox="0 0 27 26" fill="none" xmlns="http://www.w3.org/2000/svg">
<circle cx="13.5" cy="13" r="13" fill="#4361EE"/>
<g clip-path="url(#clip0_67_88)">
<path d="M14 18.4583C14.1879 18.4583 14.3681 18.5329 14.5009 18.6658C14.6337 18.7986 14.7084 18.9788 14.7084 19.1666V19.875C14.7084 20.0628 14.6337 20.243 14.5009 20.3758C14.3681 20.5087 14.1879 20.5833 14 20.5833C13.8122 20.5833 13.632 20.5087 13.4992 20.3758C13.3663 20.243 13.2917 20.0628 13.2917 19.875V19.1666C13.2917 18.9788 13.3663 18.7986 13.4992 18.6658C13.632 18.5329 13.8122 18.4583 14 18.4583ZM16.125 17.0416C16.2985 17.0416 16.466 17.1053 16.5956 17.2206C16.7253 17.3359 16.8081 17.4948 16.8284 17.6671L16.8334 17.75V18.4583C16.8332 18.6388 16.764 18.8125 16.6401 18.9438C16.5162 19.075 16.3468 19.154 16.1665 19.1646C15.9863 19.1752 15.8088 19.1166 15.6704 19.0007C15.5319 18.8848 15.443 18.7204 15.4216 18.5412L15.4167 18.4583V17.75C15.4167 17.5621 15.4913 17.3819 15.6242 17.2491C15.757 17.1163 15.9372 17.0416 16.125 17.0416ZM11.875 17.0416C12.0629 17.0416 12.2431 17.1163 12.3759 17.2491C12.5087 17.3819 12.5834 17.5621 12.5834 17.75V18.4583C12.5834 18.6462 12.5087 18.8263 12.3759 18.9592C12.2431 19.092 12.0629 19.1666 11.875 19.1666C11.6872 19.1666 11.507 19.092 11.3742 18.9592C11.2413 18.8263 11.1667 18.6462 11.1667 18.4583V17.75C11.1667 17.5621 11.2413 17.3819 11.3742 17.2491C11.507 17.1163 11.6872 17.0416 11.875 17.0416ZM14 15.625C14.1879 15.625 14.3681 15.6996 14.5009 15.8324C14.6337 15.9653 14.7084 16.1454 14.7084 16.3333V17.0416C14.7084 17.2295 14.6337 17.4097 14.5009 17.5425C14.3681 17.6753 14.1879 17.75 14 17.75C13.8122 17.75 13.632 17.6753 13.4992 17.5425C13.3663 17.4097 13.2917 17.2295 13.2917 17.0416V16.3333C13.2917 16.1454 13.3663 15.9653 13.4992 15.8324C13.632 15.6996 13.8122 15.625 14 15.625ZM13.6459 6.41663C14.5826 6.41634 15.4972 6.70179 16.2674 7.23488C17.0377 7.76797 17.627 8.52333 17.9568 9.40013C18.816 9.63573 19.5795 10.1353 20.1394 10.8283C20.6993 11.5213 21.0274 12.3727 21.0773 13.2622C21.1271 14.1518 20.8963 15.0345 20.4173 15.7857C19.9384 16.537 19.2355 17.1188 18.408 17.4489L18.25 17.5084V15.2708C18.25 14.8397 18.1376 14.4161 17.924 14.0418C17.7103 13.6674 17.4027 13.3552 17.0315 13.136C16.6604 12.9169 16.2385 12.7982 15.8075 12.7919C15.3765 12.7855 14.9512 12.8916 14.5738 13.0998C14.3974 13.1946 14.2003 13.2443 14 13.2443C13.7998 13.2443 13.6026 13.1946 13.4263 13.0998C13.0589 12.897 12.646 12.7908 12.2264 12.7911C11.8067 12.7914 11.394 12.8983 11.0269 13.1017C10.6598 13.305 10.3504 13.5982 10.1275 13.9538C9.90471 14.3094 9.77579 14.7158 9.75286 15.1348L9.75002 15.2708V17.6791C9.01268 17.5282 8.34254 17.1465 7.83672 16.5892C7.3309 16.0319 7.01569 15.328 6.93677 14.5795C6.85785 13.831 7.01932 13.0769 7.39778 12.4263C7.77624 11.7758 8.35203 11.2626 9.04169 10.9613C9.05734 9.75053 9.54932 8.59467 10.4111 7.74405C11.2728 6.89343 12.435 6.41653 13.6459 6.41663ZM11.875 14.2083C12.0629 14.2083 12.2431 14.2829 12.3759 14.4158C12.5087 14.5486 12.5834 14.7288 12.5834 14.9166V15.625C12.5834 15.8128 12.5087 15.993 12.3759 16.1258C12.2431 16.2587 12.0629 16.3333 11.875 16.3333C11.6872 16.3333 11.507 16.2587 11.3742 16.1258C11.2413 15.993 11.1667 15.8128 11.1667 15.625V14.9166C11.1667 14.7288 11.2413 14.5486 11.3742 14.4158C11.507 14.2829 11.6872 14.2083 11.875 14.2083ZM16.125 14.2083C16.2985 14.2083 16.466 14.272 16.5956 14.3873C16.7253 14.5026 16.8081 14.6614 16.8284 14.8338L16.8334 14.9166V15.625C16.8332 15.8055 16.764 15.9791 16.6401 16.1104C16.5162 16.2417 16.3468 16.3207 16.1665 16.3313C15.9863 16.3419 15.8088 16.2832 15.6704 16.1674C15.5319 16.0515 15.443 15.8871 15.4216 15.7078L15.4167 15.625V14.9166C15.4167 14.7288 15.4913 14.5486 15.6242 14.4158C15.757 14.2829 15.9372 14.2083 16.125 14.2083Z" fill="white"/>
</g>
<defs>
<clipPath id="clip0_67_88">
<rect width="17" height="17" fill="white" transform="translate(5.5 5)"/>
</clipPath>
</defs>
</svg>
