<svg width="30" height="35" viewBox="0 0 30 35" fill="none" xmlns="http://www.w3.org/2000/svg">
<path d="M3.50752 2.14356H6.167L6.56285 0.397893H6.56138C6.59217 0.266641 6.6728 0.151428 6.78862 0.0785105C6.90298 0.00704927 7.04226 -0.0177406 7.17565 0.0128846L16.708 2.145H26.4911V2.14354C26.6274 2.14354 26.7594 2.1975 26.8562 2.29375C26.9529 2.39 27.0072 2.52126 27.0072 2.65689V4.45068L29.5977 5.02966C29.7311 5.05882 29.847 5.13904 29.9203 5.25424C29.9936 5.368 30.017 5.508 29.9877 5.63923L27.0072 18.8186V32.3436C27.0072 32.4792 26.9529 32.609 26.8562 32.7053C26.7594 32.8015 26.6274 32.8555 26.4911 32.854H23.8331L23.4372 34.5997V34.6012C23.3757 34.8768 23.1015 35.0489 22.8244 34.9876L13.292 32.8541H3.50746C3.37111 32.8555 3.24063 32.8016 3.14387 32.7053C3.0471 32.6091 2.99286 32.4793 2.99286 32.3436V30.5513L0.400827 29.9709C0.267412 29.9417 0.151592 29.86 0.0782883 29.7448C0.00644837 29.6296 -0.0170092 29.4911 0.0123145 29.3583L2.99288 16.179V2.65696C2.99288 2.37404 3.22309 2.14502 3.50752 2.14356ZM9.18873 26.9342C9.28549 26.8379 9.41598 26.7825 9.55379 26.7825C9.6916 26.7825 9.82208 26.8365 9.91885 26.9342C10.0171 27.0304 10.0713 27.1617 10.0699 27.2973C10.0699 27.4344 10.0141 27.5657 9.91738 27.6604L8.59644 28.9744C8.39412 29.1742 8.06717 29.1742 7.86487 28.9744L7.04093 28.1534C6.94417 28.0571 6.88993 27.9273 6.88993 27.7902C6.88846 27.6546 6.94417 27.5234 7.04093 27.4271C7.13769 27.3308 7.26818 27.2769 7.40599 27.2769C7.54234 27.2769 7.67282 27.3323 7.76958 27.4286L8.23141 27.8865L9.18873 26.9342ZM11.9098 28.4669C11.6254 28.4655 11.3967 28.2365 11.3967 27.955C11.3967 27.6721 11.6254 27.4432 11.9098 27.4417H22.5948C22.8792 27.4432 23.1079 27.6721 23.1079 27.955C23.1079 28.2365 22.8792 28.4655 22.5948 28.4669H11.9098ZM9.18873 23.0565C9.38959 22.8581 9.71504 22.8581 9.91591 23.0579C10.1168 23.2577 10.1168 23.5815 9.91738 23.7813L8.59644 25.0967C8.39412 25.2965 8.06717 25.2965 7.86487 25.0967L7.04093 24.2757C6.94417 24.1794 6.88992 24.0496 6.88992 23.9125C6.88846 23.7769 6.94417 23.6456 7.04093 23.5494C7.13769 23.4531 7.26817 23.3992 7.40599 23.3992C7.54233 23.3992 7.67282 23.4546 7.76958 23.5508L8.23141 24.0088L9.18873 23.0565ZM9.18873 19.1786C9.28403 19.0823 9.41598 19.0284 9.55232 19.0284C9.69014 19.0284 9.82062 19.0823 9.91738 19.1786C10.0141 19.2748 10.0684 19.4046 10.0684 19.5417C10.0684 19.6773 10.0141 19.8086 9.91738 19.9034L8.59644 21.2174C8.49968 21.3151 8.36773 21.369 8.23139 21.369C8.09357 21.369 7.96162 21.3151 7.86486 21.2174L7.04092 20.3978C6.84154 20.198 6.84154 19.8742 7.04239 19.6744C7.24325 19.4746 7.5687 19.4746 7.76957 19.673L8.2314 20.1309L9.18873 19.1786ZM9.18873 15.3007V15.3021C9.38959 15.1023 9.71504 15.1023 9.91591 15.3021C10.1168 15.5019 10.1168 15.8257 9.91738 16.0269L8.59644 17.3409V17.3395C8.39412 17.5393 8.06717 17.5393 7.86487 17.3395L7.04093 16.5199C6.94417 16.4251 6.88992 16.2938 6.88992 16.1582C6.88846 16.0211 6.94417 15.8913 7.04093 15.795C7.13769 15.6988 7.26817 15.6448 7.40599 15.6448C7.54233 15.6448 7.67282 15.6988 7.76958 15.795L8.23141 16.253L9.18873 15.3007ZM11.9098 12.9541C11.6254 12.9541 11.3967 12.7237 11.3967 12.4423C11.3967 12.1608 11.6254 11.9304 11.9098 11.9304H22.5948C22.8792 11.9304 23.1079 12.1608 23.1079 12.4423C23.1079 12.7237 22.8792 12.9541 22.5948 12.9541H11.9098ZM9.18873 11.4229V11.4243C9.38959 11.2245 9.71504 11.226 9.91591 11.4258C10.1168 11.6241 10.1168 11.9478 9.91738 12.1491L8.59644 13.4631C8.39412 13.6614 8.06717 13.6614 7.86487 13.4631L7.04093 12.6435C6.94417 12.5472 6.88992 12.416 6.88992 12.2804C6.88846 12.1433 6.94417 12.0135 7.04093 11.9172C7.13769 11.821 7.26817 11.767 7.40599 11.767C7.54233 11.767 7.67282 11.821 7.76958 11.9187L8.23141 12.3766L9.18873 11.4229ZM11.9098 24.5891C11.6254 24.5877 11.3967 24.3587 11.3967 24.0772C11.3967 23.7943 11.6254 23.5653 11.9098 23.5639H22.5948C22.8792 23.5653 23.1079 23.7943 23.1079 24.0772C23.1079 24.3587 22.8792 24.5877 22.5948 24.5891H11.9098ZM11.9098 20.7112C11.6254 20.7112 11.3967 20.4808 11.3967 20.1993C11.3967 19.9179 11.6254 19.6874 11.9098 19.6874H22.5948C22.8792 19.6874 23.1079 19.9179 23.1079 20.1993C23.1079 20.4808 22.8792 20.7112 22.5948 20.7112H11.9098ZM11.9098 16.8333V16.8348C11.6254 16.8333 11.3952 16.6029 11.3952 16.3214C11.3952 16.0385 11.6254 15.8081 11.9098 15.8066H22.5948C22.8792 15.8081 23.1094 16.0385 23.1094 16.3214C23.1094 16.6029 22.8792 16.8333 22.5948 16.8348L11.9098 16.8333ZM10.2502 5.40832H19.7503C20.0347 5.40978 20.2649 5.63874 20.2649 5.92167V7.97213C20.2649 8.25505 20.0347 8.48548 19.7503 8.48548H10.2502C9.96429 8.48548 9.73411 8.25651 9.73411 7.97213V5.92167C9.73411 5.63874 9.96429 5.40978 10.2502 5.40832ZM19.2346 6.43355H10.7666V7.46024H19.2346V6.43355ZM7.22134 2.14311H12.0258L7.45292 1.11934L7.22134 2.14311ZM27.0078 5.49591V14.16L28.8727 5.91442L27.0078 5.49591ZM22.7795 32.8532H17.975L22.5479 33.877L22.7795 32.8532ZM2.99299 29.5019V20.8378L1.12961 29.0849L2.99299 29.5019ZM25.9768 3.16827H4.02362V31.8297H25.9768V3.16827Z" fill="black"/>
</svg>
