<svg width="70" height="70" viewBox="0 0 26 26" fill="none" xmlns="http://www.w3.org/2000/svg">
<circle cx="13" cy="13" r="13" fill="#FB5607"/>
<path d="M13.75 14.754V9.31302H11.75V14.753C11.0485 15.117 10.563 15.843 10.563 16.688C10.5716 17.2625 10.8059 17.8106 11.2152 18.2138C11.6245 18.6171 12.1759 18.8431 12.7505 18.8432C13.3251 18.8433 13.8766 18.6173 14.286 18.2142C14.6954 17.811 14.9298 17.263 14.9385 16.6885C14.9385 15.8435 14.4535 15.1175 13.7505 14.7545L13.75 14.754ZM15.25 7.62402C15.25 6.24602 14.128 5.12402 12.75 5.12402C11.372 5.12402 10.25 6.24652 10.25 7.62402V13.9875C9.87511 14.3302 9.57585 14.7473 9.37137 15.2122C9.16689 15.6771 9.0617 16.1796 9.0625 16.6875C9.0625 18.7205 10.7175 20.376 12.7505 20.376C14.7835 20.376 16.438 18.721 16.438 16.6875C16.438 15.6445 15.999 14.6725 15.2505 13.9865V7.62502L15.25 7.62402ZM15.4375 16.689C15.4364 17.4013 15.1529 18.0841 14.6491 18.5877C14.1453 19.0912 13.4623 19.3744 12.75 19.375C12.0378 19.3741 11.355 19.0908 10.8514 18.5871C10.3478 18.0835 10.0644 17.4007 10.0635 16.6885C10.0635 15.791 10.5115 14.967 11.2515 14.4695V7.62502C11.2515 6.79852 11.923 6.12502 12.75 6.12502C13.577 6.12502 14.25 6.79802 14.25 7.62502V14.47C14.6153 14.7134 14.9149 15.0433 15.1221 15.4303C15.3292 15.8173 15.4376 16.25 15.4375 16.689ZM16.0425 9.31302L18.2925 10.612V8.01502L16.0425 9.31302Z" fill="white"/>
</svg>
