<svg width="45" height="44" viewBox="0 0 31 30" fill="none" xmlns="http://www.w3.org/2000/svg">
<path d="M24.2099 12.868L23.3819 12.304C24.3489 10.8806 24.9119 9.22177 25.0112 7.50389C25.1105 5.78601 24.7424 4.07333 23.9459 2.548L23.7779 2.242L24.6499 1.75L24.8299 2.084C25.7111 3.76965 26.1189 5.66269 26.0097 7.56165C25.9005 9.46061 25.2785 11.2944 24.2099 12.868ZM26.5139 27.13V28H4.51392V27.13H9.48992L12.5879 12.8C12.6364 12.5767 12.7598 12.3767 12.9378 12.2333C13.1157 12.0899 13.3374 12.0118 13.5659 12.012H15.0159V9.2C14.5177 9.08428 14.073 8.80442 13.753 8.40541C13.4331 8.0064 13.2566 7.51141 13.2519 7C13.2428 6.69053 13.2959 6.38238 13.4081 6.0938C13.5202 5.80522 13.6891 5.54208 13.9048 5.31996C14.1205 5.09784 14.3785 4.92127 14.6637 4.80069C14.9489 4.68011 15.2553 4.61798 15.5649 4.61798C15.8745 4.61798 16.181 4.68011 16.4661 4.80069C16.7513 4.92127 17.0094 5.09784 17.225 5.31996C17.4407 5.54208 17.6096 5.80522 17.7218 6.0938C17.8339 6.38238 17.887 6.69053 17.8779 7C17.8735 7.52856 17.6856 8.03917 17.3463 8.44449C17.007 8.84981 16.5375 9.12465 16.0179 9.222V12.012H17.4599C17.6888 12.0114 17.9109 12.0893 18.0893 12.2327C18.2676 12.3761 18.3914 12.5763 18.4399 12.8L21.5339 27.13H26.5139ZM17.4079 17.502H13.6199L12.9739 20.488H18.0559L17.4079 17.502ZM12.7559 21.488L12.1099 24.478H18.9159L18.2699 21.488H12.7559ZM14.3719 14.012L13.8319 16.502H17.1919L16.6539 14.012H14.3719ZM11.5359 27.132H19.4899L19.1319 25.478H11.8919L11.5359 27.132ZM10.9199 10.026C10.3218 9.11913 10.0057 8.05546 10.0114 6.96915C10.0171 5.88284 10.3444 4.82255 10.9519 3.922L10.1239 3.362C9.40584 4.42628 9.01902 5.67939 9.01226 6.96324C9.0055 8.2471 9.37909 9.50421 10.0859 10.576L10.9199 10.026ZM22.0139 7C22.0155 5.73042 21.6441 4.48833 20.9459 3.428L20.1099 3.978C20.7066 4.88484 21.0215 5.94796 21.0151 7.03345C21.0087 8.11894 20.6812 9.17826 20.0739 10.078L20.9019 10.634C21.6286 9.56156 22.016 8.29543 22.0139 7ZM7.56792 12.236C6.59863 10.7644 6.05682 9.05263 6.00279 7.29132C5.94876 5.53 6.38465 3.78825 7.26192 2.26L6.39592 1.76C5.42596 3.44943 4.94415 5.375 5.00419 7.32215C5.06422 9.2693 5.66373 11.1615 6.73592 12.788L7.56792 12.236Z" fill="black"/>
</svg>
