<svg width="30" height="30" viewBox="0 0 30 30" fill="none" xmlns="http://www.w3.org/2000/svg">
<path d="M23.7102 12.868L22.8822 12.304C23.8491 10.8806 24.4122 9.22177 24.5115 7.50389C24.6108 5.78601 24.2426 4.07333 23.4462 2.548L23.2782 2.242L24.1502 1.75L24.3302 2.084C25.2114 3.76965 25.6191 5.66269 25.5099 7.56165C25.4008 9.46061 24.7788 11.2945 23.7102 12.868ZM26.0142 27.13V28H4.01416V27.13H8.99016L12.0882 12.8C12.1366 12.5767 12.2601 12.3767 12.438 12.2333C12.616 12.0899 12.8376 12.0118 13.0662 12.012H14.5162V9.2C14.018 9.08428 13.5732 8.80442 13.2533 8.40541C12.9333 8.0064 12.7568 7.51141 12.7522 7C12.7431 6.69053 12.7962 6.38238 12.9083 6.0938C13.0204 5.80522 13.1894 5.54208 13.405 5.31996C13.6207 5.09784 13.8788 4.92127 14.1639 4.80069C14.4491 4.68011 14.7556 4.61798 15.0652 4.61798C15.3748 4.61798 15.6812 4.68011 15.9664 4.80069C16.2515 4.92127 16.5096 5.09784 16.7253 5.31996C16.941 5.54208 17.1099 5.80522 17.222 6.0938C17.3342 6.38238 17.3873 6.69053 17.3782 7C17.3738 7.52856 17.1858 8.03917 16.8466 8.44449C16.5073 8.84981 16.0377 9.12465 15.5182 9.222V12.012H16.9602C17.189 12.0114 17.4112 12.0893 17.5895 12.2327C17.7679 12.3761 17.8916 12.5763 17.9402 12.8L21.0342 27.13H26.0142ZM10.4202 10.026C9.82209 9.11913 9.50596 8.05546 9.51166 6.96915C9.51735 5.88284 9.84461 4.82255 10.4522 3.922L9.62416 3.362C8.90608 4.42628 8.51927 5.67939 8.5125 6.96324C8.50574 8.2471 8.87933 9.50421 9.58616 10.576L10.4202 10.026ZM21.5142 7C21.5158 5.73042 21.1444 4.48833 20.4462 3.428L19.6102 3.978C20.2068 4.88484 20.5217 5.94796 20.5153 7.03345C20.5089 8.11894 20.1815 9.17826 19.5742 10.078L20.4022 10.634C21.1288 9.56156 21.5162 8.29543 21.5142 7ZM7.06816 12.236C6.09888 10.7644 5.55706 9.05263 5.50303 7.29132C5.44901 5.53 5.88489 3.78825 6.76216 2.26L5.89616 1.76C4.9262 3.44943 4.4444 5.375 4.50443 7.32215C4.56446 9.2693 5.16397 11.1615 6.23616 12.788L7.06816 12.236Z" fill="#333333"/>
<line x1="12.5" y1="14.95" x2="17.5" y2="14.95" stroke="white" stroke-width="0.1"/>
<line x1="12" y1="19.95" x2="18.25" y2="19.95" stroke="white" stroke-width="0.1"/>
<line x1="10" y1="24.95" x2="20" y2="24.95" stroke="white" stroke-width="0.1"/>
</svg>
