<svg width="70" height="70" viewBox="0 0 27 26" fill="none" xmlns="http://www.w3.org/2000/svg">
<circle cx="13.5" cy="13" r="13" fill="#219EBC"/>
<path d="M8.83333 10.3333H14.5C14.8096 10.3392 15.1148 10.2587 15.3812 10.1009C15.6477 9.94312 15.8649 9.71419 16.0085 9.43983C16.1521 9.16546 16.2164 8.85651 16.1943 8.54763C16.1721 8.23874 16.0643 7.94214 15.883 7.69109C15.7017 7.44004 15.454 7.24448 15.1678 7.12632C14.8815 7.00817 14.568 6.9721 14.2624 7.02217C13.9568 7.07224 13.6712 7.20647 13.4376 7.40979C13.204 7.61311 13.0317 7.87749 12.94 8.17327M7.5 12.9999H17.8333C18.143 12.994 18.4481 13.0745 18.7146 13.2323C18.981 13.3901 19.1982 13.619 19.3418 13.8934C19.4854 14.1678 19.5498 14.4767 19.5276 14.7856C19.5054 15.0945 19.3977 15.3911 19.2164 15.6421C19.035 15.8932 18.7874 16.0887 18.5011 16.2069C18.2149 16.325 17.9014 16.3611 17.5957 16.311C17.2901 16.261 17.0045 16.1267 16.771 15.9234C16.5374 15.7201 16.3651 15.4557 16.2733 15.1599M8.16667 15.6666H11.8333C12.143 15.6607 12.4481 15.7411 12.7146 15.8989C12.981 16.0568 13.1982 16.2857 13.3418 16.5601C13.4854 16.8344 13.5498 17.1434 13.5276 17.4523C13.5054 17.7611 13.3977 18.0577 13.2164 18.3088C13.035 18.5598 12.7874 18.7554 12.5011 18.8736C12.2149 18.9917 11.9014 19.0278 11.5957 18.9777C11.2901 18.9276 11.0045 18.7934 10.771 18.5901C10.5374 18.3868 10.3651 18.1224 10.2733 17.8266" stroke="white" stroke-width="1.5" stroke-linecap="round" stroke-linejoin="round"/>
</svg>
